# WaveFront *.obj file (generated by Autodesk ATF)

mtllib 2denv4.mtl

g Body1

v 182.747363 -124.028171 0.000000
v -157.252637 -124.028171 0.000000
v -157.252637 -124.028171 30.000000
v 182.747363 -124.028171 30.000000
v 182.747363 215.971829 0.000000
v 182.747363 215.971829 30.000000
v -157.252637 215.971829 0.000000
v -157.252637 215.971829 30.000000
v 187.747363 220.971829 0.000000
v -162.252637 220.971829 0.000000
v -162.252637 220.971829 30.000000
v 187.747363 220.971829 30.000000
v 187.747363 -129.028171 0.000000
v 187.747363 -129.028171 30.000000
v -162.252637 -129.028171 0.000000
v -162.252637 -129.028171 30.000000
vt 0.000000 0.000000 0.000000
vt 34.000000 0.000000 0.000000
vt 0.000000 3.000000 0.000000
vt 34.000000 3.000000 0.000000
vt 0.000000 0.000000 0.000000
vt 34.000000 0.000000 0.000000
vt 0.000000 3.000000 0.000000
vt 34.000000 3.000000 0.000000
vt 0.000000 0.000000 0.000000
vt 34.000000 0.000000 0.000000
vt 0.000000 3.000000 0.000000
vt 34.000000 3.000000 0.000000
vt 0.000000 0.000000 0.000000
vt 34.000000 0.000000 0.000000
vt 0.000000 3.000000 0.000000
vt 34.000000 3.000000 0.000000
vt 0.000000 0.000000 0.000000
vt 35.000000 0.000000 0.000000
vt 0.000000 3.000000 0.000000
vt 35.000000 3.000000 0.000000
vt 0.000000 0.000000 0.000000
vt 35.000000 0.000000 0.000000
vt 0.000000 3.000000 0.000000
vt 35.000000 3.000000 0.000000
vt 0.000000 0.000000 0.000000
vt 35.000000 0.000000 0.000000
vt 0.000000 3.000000 0.000000
vt 35.000000 3.000000 0.000000
vt 0.000000 0.000000 0.000000
vt 35.000000 0.000000 0.000000
vt 0.000000 3.000000 0.000000
vt 35.000000 3.000000 0.000000
vt 17.000000 17.000000 0.000000
vt 17.000000 -17.000000 0.000000
vt 17.500000 -17.500000 0.000000
vt -17.000000 -17.000000 0.000000
vt -17.500000 -17.500000 0.000000
vt -17.000000 17.000000 0.000000
vt -17.500000 17.500000 0.000000
vt 17.500000 17.500000 0.000000
vt 17.000000 -17.000000 0.000000
vt 17.500000 -17.500000 0.000000
vt 17.000000 17.000000 0.000000
vt 17.500000 17.500000 0.000000
vt -17.500000 17.500000 0.000000
vt -17.000000 -17.000000 0.000000
vt -17.500000 -17.500000 0.000000
vt -17.000000 17.000000 0.000000
vn -0.000000 0.100000 0.000000
vn -0.000000 0.100000 0.000000
vn -0.000000 0.100000 0.000000
vn -0.000000 0.100000 0.000000
vn -0.100000 -0.000000 0.000000
vn -0.100000 -0.000000 0.000000
vn -0.100000 -0.000000 0.000000
vn -0.100000 -0.000000 0.000000
vn 0.000000 -0.100000 0.000000
vn 0.000000 -0.100000 0.000000
vn 0.000000 -0.100000 0.000000
vn 0.000000 -0.100000 0.000000
vn 0.100000 -0.000000 -0.000000
vn 0.100000 -0.000000 -0.000000
vn 0.100000 -0.000000 -0.000000
vn 0.100000 -0.000000 -0.000000
vn 0.000000 0.100000 0.000000
vn 0.000000 0.100000 0.000000
vn 0.000000 0.100000 0.000000
vn 0.000000 0.100000 0.000000
vn 0.100000 -0.000000 -0.000000
vn 0.100000 -0.000000 -0.000000
vn 0.100000 -0.000000 -0.000000
vn 0.100000 -0.000000 -0.000000
vn 0.000000 -0.100000 0.000000
vn 0.000000 -0.100000 0.000000
vn 0.000000 -0.100000 0.000000
vn 0.000000 -0.100000 0.000000
vn -0.100000 -0.000000 0.000000
vn -0.100000 -0.000000 0.000000
vn -0.100000 -0.000000 0.000000
vn -0.100000 -0.000000 0.000000
vn 0.000000 -0.000000 0.100000
vn 0.000000 -0.000000 0.100000
vn 0.000000 -0.000000 0.100000
vn 0.000000 -0.000000 0.100000
vn 0.000000 -0.000000 0.100000
vn 0.000000 -0.000000 0.100000
vn 0.000000 -0.000000 0.100000
vn 0.000000 -0.000000 0.100000
vn 0.000000 -0.000000 -0.100000
vn 0.000000 -0.000000 -0.100000
vn 0.000000 -0.000000 -0.100000
vn 0.000000 -0.000000 -0.100000
vn 0.000000 -0.000000 -0.100000
vn 0.000000 -0.000000 -0.100000
vn 0.000000 -0.000000 -0.100000
vn 0.000000 -0.000000 -0.100000
usemtl Steel_-_Satin
f 1/1/1 2/2/2 4/3/3
f 4/3/3 2/2/2 3/4/4
f 5/5/5 1/6/6 6/7/7
f 6/7/7 1/6/6 4/8/8
f 7/9/9 5/10/10 8/11/11
f 8/11/11 5/10/10 6/12/12
f 2/13/13 7/14/14 3/15/15
f 3/15/15 7/14/14 8/16/16
f 9/17/17 10/18/18 12/19/19
f 12/19/19 10/18/18 11/20/20
f 13/21/21 9/22/22 14/23/23
f 14/23/23 9/22/22 12/24/24
f 15/25/25 13/26/26 16/27/27
f 16/27/27 13/26/26 14/28/28
f 10/29/29 15/30/30 11/31/31
f 11/31/31 15/30/30 16/32/32
f 4/33/33 3/34/34 16/35/35
f 16/35/35 3/34/34 8/36/36
f 16/35/35 8/36/36 11/37/37
f 11/37/37 8/36/36 6/38/38
f 11/37/37 6/38/38 12/39/39
f 12/39/39 6/38/38 4/33/33
f 12/39/39 4/33/33 14/40/40
f 14/40/40 4/33/33 16/35/35
f 2/41/41 15/42/42 7/43/43
f 7/43/43 15/42/42 10/44/44
f 7/43/43 10/44/44 9/45/45
f 2/41/41 1/46/46 15/42/42
f 15/42/42 1/46/46 13/47/47
f 13/47/47 1/46/46 5/48/48
f 13/47/47 5/48/48 9/45/45
f 9/45/45 5/48/48 7/43/43
g Body2

v -79.172988 -6.779743 0.000000
v -79.172988 -26.779743 0.000000
v -79.172988 -26.779743 30.000000
v -79.172988 -6.779743 30.000000
v -59.172988 -6.779743 0.000000
v -59.172988 -6.779743 30.000000
v -59.172988 -26.779743 0.000000
v -59.172988 -26.779743 30.000000
vt 0.000000 0.000000 0.000000
vt 2.000000 0.000000 0.000000
vt 0.000000 3.000000 0.000000
vt 2.000000 3.000000 0.000000
vt -0.000000 0.000000 0.000000
vt 2.000000 0.000000 0.000000
vt -0.000000 3.000000 0.000000
vt 2.000000 3.000000 0.000000
vt -0.000000 0.000000 0.000000
vt 2.000000 0.000000 0.000000
vt -0.000000 3.000000 0.000000
vt 2.000000 3.000000 0.000000
vt 0.000000 0.000000 0.000000
vt 2.000000 0.000000 0.000000
vt 0.000000 3.000000 0.000000
vt 2.000000 3.000000 0.000000
vt 1.000000 1.000000 0.000000
vt -1.000000 1.000000 0.000000
vt 1.000000 -1.000000 0.000000
vt -1.000000 -1.000000 0.000000
vt -1.000000 -1.000000 0.000000
vt 1.000000 -1.000000 0.000000
vt -1.000000 1.000000 0.000000
vt 1.000000 1.000000 0.000000
vn -0.100000 -0.000000 0.000000
vn -0.100000 -0.000000 0.000000
vn -0.100000 -0.000000 0.000000
vn -0.100000 -0.000000 0.000000
vn 0.000000 0.100000 0.000000
vn 0.000000 0.100000 0.000000
vn 0.000000 0.100000 0.000000
vn 0.000000 0.100000 0.000000
vn 0.100000 -0.000000 0.000000
vn 0.100000 -0.000000 0.000000
vn 0.100000 -0.000000 0.000000
vn 0.100000 -0.000000 0.000000
vn 0.000000 -0.100000 -0.000000
vn 0.000000 -0.100000 -0.000000
vn 0.000000 -0.100000 -0.000000
vn 0.000000 -0.100000 -0.000000
vn 0.000000 -0.000000 0.100000
vn 0.000000 -0.000000 0.100000
vn 0.000000 -0.000000 0.100000
vn 0.000000 -0.000000 0.100000
vn 0.000000 -0.000000 -0.100000
vn 0.000000 -0.000000 -0.100000
vn 0.000000 -0.000000 -0.100000
vn 0.000000 -0.000000 -0.100000
f 17/49/49 18/50/50 20/51/51
f 20/51/51 18/50/50 19/52/52
f 21/53/53 17/54/54 22/55/55
f 22/55/55 17/54/54 20/56/56
f 23/57/57 21/58/58 24/59/59
f 24/59/59 21/58/58 22/60/60
f 18/61/61 23/62/62 19/63/63
f 19/63/63 23/62/62 24/64/64
f 24/65/65 22/66/66 19/67/67
f 19/67/67 22/66/66 20/68/68
f 23/69/69 18/70/70 21/71/71
f 21/71/71 18/70/70 17/72/72
g Body3

v -8.879054 69.093075 0.000000
v -8.879054 49.093075 0.000000
v -8.879054 49.093075 30.000000
v -8.879054 69.093075 30.000000
v 11.120946 69.093075 0.000000
v 11.120946 69.093075 30.000000
v 11.120946 49.093075 0.000000
v 11.120946 49.093075 30.000000
vt 0.000000 0.000000 0.000000
vt 2.000000 0.000000 0.000000
vt 0.000000 3.000000 0.000000
vt 2.000000 3.000000 0.000000
vt -0.000000 0.000000 0.000000
vt 2.000000 0.000000 0.000000
vt -0.000000 3.000000 0.000000
vt 2.000000 3.000000 0.000000
vt -0.000000 0.000000 0.000000
vt 2.000000 0.000000 0.000000
vt -0.000000 3.000000 0.000000
vt 2.000000 3.000000 0.000000
vt 0.000000 0.000000 0.000000
vt 2.000000 0.000000 0.000000
vt 0.000000 3.000000 0.000000
vt 2.000000 3.000000 0.000000
vt 1.000000 1.000000 0.000000
vt -1.000000 1.000000 0.000000
vt 1.000000 -1.000000 0.000000
vt -1.000000 -1.000000 0.000000
vt -1.000000 -1.000000 0.000000
vt 1.000000 -1.000000 0.000000
vt -1.000000 1.000000 0.000000
vt 1.000000 1.000000 0.000000
vn -0.100000 -0.000000 0.000000
vn -0.100000 -0.000000 0.000000
vn -0.100000 -0.000000 0.000000
vn -0.100000 -0.000000 0.000000
vn 0.000000 0.100000 0.000000
vn 0.000000 0.100000 0.000000
vn 0.000000 0.100000 0.000000
vn 0.000000 0.100000 0.000000
vn 0.100000 -0.000000 0.000000
vn 0.100000 -0.000000 0.000000
vn 0.100000 -0.000000 0.000000
vn 0.100000 -0.000000 0.000000
vn 0.000000 -0.100000 -0.000000
vn 0.000000 -0.100000 -0.000000
vn 0.000000 -0.100000 -0.000000
vn 0.000000 -0.100000 -0.000000
vn 0.000000 -0.000000 0.100000
vn 0.000000 -0.000000 0.100000
vn 0.000000 -0.000000 0.100000
vn 0.000000 -0.000000 0.100000
vn 0.000000 -0.000000 -0.100000
vn 0.000000 -0.000000 -0.100000
vn 0.000000 -0.000000 -0.100000
vn 0.000000 -0.000000 -0.100000
f 25/73/73 26/74/74 28/75/75
f 28/75/75 26/74/74 27/76/76
f 29/77/77 25/78/78 30/79/79
f 30/79/79 25/78/78 28/80/80
f 31/81/81 29/82/82 32/83/83
f 32/83/83 29/82/82 30/84/84
f 26/85/85 31/86/86 27/87/87
f 27/87/87 31/86/86 32/88/88
f 32/89/89 30/90/90 27/91/91
f 27/91/91 30/90/90 28/92/92
f 31/93/93 26/94/94 29/95/95
f 29/95/95 26/94/94 25/96/96
g Body4

v 69.207066 171.181414 0.000000
v 69.207066 71.181414 0.000000
v 69.207066 71.181414 30.000000
v 69.207066 171.181414 30.000000
v 89.207066 171.181414 0.000000
v 89.207066 171.181414 30.000000
v 89.207066 71.181414 0.000000
v 89.207066 71.181414 30.000000
vt 0.000000 0.000000 0.000000
vt 10.000000 0.000000 0.000000
vt 0.000000 3.000000 0.000000
vt 10.000000 3.000000 0.000000
vt -0.000000 0.000000 0.000000
vt 2.000000 0.000000 0.000000
vt -0.000000 3.000000 0.000000
vt 2.000000 3.000000 0.000000
vt -0.000000 0.000000 0.000000
vt 10.000000 0.000000 0.000000
vt -0.000000 3.000000 0.000000
vt 10.000000 3.000000 0.000000
vt 0.000000 0.000000 0.000000
vt 2.000000 0.000000 0.000000
vt 0.000000 3.000000 0.000000
vt 2.000000 3.000000 0.000000
vt 5.000000 1.000000 0.000000
vt -5.000000 1.000000 0.000000
vt 5.000000 -1.000000 0.000000
vt -5.000000 -1.000000 0.000000
vt -1.000000 -5.000000 0.000000
vt 1.000000 -5.000000 0.000000
vt -1.000000 5.000000 0.000000
vt 1.000000 5.000000 0.000000
vn -0.100000 -0.000000 0.000000
vn -0.100000 -0.000000 0.000000
vn -0.100000 -0.000000 0.000000
vn -0.100000 -0.000000 0.000000
vn 0.000000 0.100000 0.000000
vn 0.000000 0.100000 0.000000
vn 0.000000 0.100000 0.000000
vn 0.000000 0.100000 0.000000
vn 0.100000 -0.000000 0.000000
vn 0.100000 -0.000000 0.000000
vn 0.100000 -0.000000 0.000000
vn 0.100000 -0.000000 0.000000
vn 0.000000 -0.100000 -0.000000
vn 0.000000 -0.100000 -0.000000
vn 0.000000 -0.100000 -0.000000
vn 0.000000 -0.100000 -0.000000
vn 0.000000 -0.000000 0.100000
vn 0.000000 -0.000000 0.100000
vn 0.000000 -0.000000 0.100000
vn 0.000000 -0.000000 0.100000
vn 0.000000 -0.000000 -0.100000
vn 0.000000 -0.000000 -0.100000
vn 0.000000 -0.000000 -0.100000
vn 0.000000 -0.000000 -0.100000
f 33/97/97 34/98/98 36/99/99
f 36/99/99 34/98/98 35/100/100
f 37/101/101 33/102/102 38/103/103
f 38/103/103 33/102/102 36/104/104
f 39/105/105 37/106/106 40/107/107
f 40/107/107 37/106/106 38/108/108
f 34/109/109 39/110/110 35/111/111
f 35/111/111 39/110/110 40/112/112
f 40/113/113 38/114/114 35/115/115
f 35/115/115 38/114/114 36/116/116
f 39/117/117 34/118/118 37/119/119
f 37/119/119 34/118/118 33/120/120
g Body5

v 69.969168 -47.319631 0.000000
v 69.969168 -72.319631 0.000000
v 69.969168 -72.319631 30.000000
v 69.969168 -47.319631 30.000000
v 129.969168 -47.319631 0.000000
v 129.969168 -47.319631 30.000000
v 129.969168 -72.319631 0.000000
v 129.969168 -72.319631 30.000000
vt 0.000000 0.000000 0.000000
vt 2.500000 0.000000 0.000000
vt 0.000000 3.000000 0.000000
vt 2.500000 3.000000 0.000000
vt -0.000000 0.000000 0.000000
vt 6.000000 0.000000 0.000000
vt -0.000000 3.000000 0.000000
vt 6.000000 3.000000 0.000000
vt -0.000000 0.000000 0.000000
vt 2.500000 0.000000 0.000000
vt -0.000000 3.000000 0.000000
vt 2.500000 3.000000 0.000000
vt 0.000000 0.000000 0.000000
vt 6.000000 0.000000 0.000000
vt 0.000000 3.000000 0.000000
vt 6.000000 3.000000 0.000000
vt 1.250000 3.000000 0.000000
vt -1.250000 3.000000 0.000000
vt 1.250000 -3.000000 0.000000
vt -1.250000 -3.000000 0.000000
vt -3.000000 -1.250000 0.000000
vt 3.000000 -1.250000 0.000000
vt -3.000000 1.250000 0.000000
vt 3.000000 1.250000 0.000000
vn -0.100000 -0.000000 0.000000
vn -0.100000 -0.000000 0.000000
vn -0.100000 -0.000000 0.000000
vn -0.100000 -0.000000 0.000000
vn 0.000000 0.100000 0.000000
vn 0.000000 0.100000 0.000000
vn 0.000000 0.100000 0.000000
vn 0.000000 0.100000 0.000000
vn 0.100000 -0.000000 0.000000
vn 0.100000 -0.000000 0.000000
vn 0.100000 -0.000000 0.000000
vn 0.100000 -0.000000 0.000000
vn 0.000000 -0.100000 -0.000000
vn 0.000000 -0.100000 -0.000000
vn 0.000000 -0.100000 -0.000000
vn 0.000000 -0.100000 -0.000000
vn 0.000000 -0.000000 0.100000
vn 0.000000 -0.000000 0.100000
vn 0.000000 -0.000000 0.100000
vn 0.000000 -0.000000 0.100000
vn 0.000000 -0.000000 -0.100000
vn 0.000000 -0.000000 -0.100000
vn 0.000000 -0.000000 -0.100000
vn 0.000000 -0.000000 -0.100000
f 41/121/121 42/122/122 44/123/123
f 44/123/123 42/122/122 43/124/124
f 45/125/125 41/126/126 46/127/127
f 46/127/127 41/126/126 44/128/128
f 47/129/129 45/130/130 48/131/131
f 48/131/131 45/130/130 46/132/132
f 42/133/133 47/134/134 43/135/135
f 43/135/135 47/134/134 48/136/136
f 48/137/137 46/138/138 43/139/139
f 43/139/139 46/138/138 44/140/140
f 47/141/141 42/142/142 45/143/143
f 45/143/143 42/142/142 41/144/144
g Body6

v -87.786967 175.499521 0.000000
v -87.786967 150.499521 0.000000
v -87.786967 150.499521 30.000000
v -87.786967 175.499521 30.000000
v -62.786967 175.499521 0.000000
v -62.786967 175.499521 30.000000
v -62.786967 150.499521 0.000000
v -62.786967 150.499521 30.000000
vt 0.000000 0.000000 0.000000
vt 2.500000 0.000000 0.000000
vt 0.000000 3.000000 0.000000
vt 2.500000 3.000000 0.000000
vt -0.000000 0.000000 0.000000
vt 2.500000 0.000000 0.000000
vt -0.000000 3.000000 0.000000
vt 2.500000 3.000000 0.000000
vt -0.000000 0.000000 0.000000
vt 2.500000 0.000000 0.000000
vt -0.000000 3.000000 0.000000
vt 2.500000 3.000000 0.000000
vt 0.000000 0.000000 0.000000
vt 2.500000 0.000000 0.000000
vt 0.000000 3.000000 0.000000
vt 2.500000 3.000000 0.000000
vt 1.250000 1.250000 0.000000
vt -1.250000 1.250000 0.000000
vt 1.250000 -1.250000 0.000000
vt -1.250000 -1.250000 0.000000
vt -1.250000 -1.250000 0.000000
vt 1.250000 -1.250000 0.000000
vt -1.250000 1.250000 0.000000
vt 1.250000 1.250000 0.000000
vn -0.100000 -0.000000 0.000000
vn -0.100000 -0.000000 0.000000
vn -0.100000 -0.000000 0.000000
vn -0.100000 -0.000000 0.000000
vn 0.000000 0.100000 0.000000
vn 0.000000 0.100000 0.000000
vn 0.000000 0.100000 0.000000
vn 0.000000 0.100000 0.000000
vn 0.100000 -0.000000 0.000000
vn 0.100000 -0.000000 0.000000
vn 0.100000 -0.000000 0.000000
vn 0.100000 -0.000000 0.000000
vn 0.000000 -0.100000 -0.000000
vn 0.000000 -0.100000 -0.000000
vn 0.000000 -0.100000 -0.000000
vn 0.000000 -0.100000 -0.000000
vn 0.000000 -0.000000 0.100000
vn 0.000000 -0.000000 0.100000
vn 0.000000 -0.000000 0.100000
vn 0.000000 -0.000000 0.100000
vn 0.000000 -0.000000 -0.100000
vn 0.000000 -0.000000 -0.100000
vn 0.000000 -0.000000 -0.100000
vn 0.000000 -0.000000 -0.100000
f 49/145/145 50/146/146 52/147/147
f 52/147/147 50/146/146 51/148/148
f 53/149/149 49/150/150 54/151/151
f 54/151/151 49/150/150 52/152/152
f 55/153/153 53/154/154 56/155/155
f 56/155/155 53/154/154 54/156/156
f 50/157/157 55/158/158 51/159/159
f 51/159/159 55/158/158 56/160/160
f 56/161/161 54/162/162 51/163/163
f 51/163/163 54/162/162 52/164/164
f 55/165/165 50/166/166 53/167/167
f 53/167/167 50/166/166 49/168/168
g Body7

v 7.504106 -66.422784 0.000000
v -82.495894 -66.422784 0.000000
v -82.495894 -66.422784 30.000000
v 7.504106 -66.422784 30.000000
v 7.504106 -96.422784 0.000000
v 7.504106 -96.422784 30.000000
v -82.495894 -96.422784 0.000000
v -82.495894 -96.422784 30.000000
vt 0.000000 0.000000 0.000000
vt 9.000000 0.000000 0.000000
vt 0.000000 3.000000 0.000000
vt 9.000000 3.000000 0.000000
vt 0.000000 0.000000 0.000000
vt 3.000000 0.000000 0.000000
vt 0.000000 3.000000 0.000000
vt 3.000000 3.000000 0.000000
vt 0.000000 0.000000 0.000000
vt 9.000000 0.000000 0.000000
vt 0.000000 3.000000 0.000000
vt 9.000000 3.000000 0.000000
vt 0.000000 0.000000 0.000000
vt 3.000000 0.000000 0.000000
vt 0.000000 3.000000 0.000000
vt 3.000000 3.000000 0.000000
vt -1.500000 -4.500000 0.000000
vt 1.500000 -4.500000 0.000000
vt -1.500000 4.500000 0.000000
vt 1.500000 4.500000 0.000000
vt 4.500000 1.500000 0.000000
vt -4.500000 1.500000 0.000000
vt 4.500000 -1.500000 0.000000
vt -4.500000 -1.500000 0.000000
vn 0.000000 0.100000 0.000000
vn 0.000000 0.100000 0.000000
vn 0.000000 0.100000 0.000000
vn 0.000000 0.100000 0.000000
vn 0.100000 -0.000000 -0.000000
vn 0.100000 -0.000000 -0.000000
vn 0.100000 -0.000000 -0.000000
vn 0.100000 -0.000000 -0.000000
vn 0.000000 -0.100000 0.000000
vn 0.000000 -0.100000 0.000000
vn 0.000000 -0.100000 0.000000
vn 0.000000 -0.100000 0.000000
vn -0.100000 -0.000000 0.000000
vn -0.100000 -0.000000 0.000000
vn -0.100000 -0.000000 0.000000
vn -0.100000 -0.000000 0.000000
vn 0.000000 -0.000000 0.100000
vn 0.000000 -0.000000 0.100000
vn 0.000000 -0.000000 0.100000
vn 0.000000 -0.000000 0.100000
vn 0.000000 -0.000000 -0.100000
vn 0.000000 -0.000000 -0.100000
vn 0.000000 -0.000000 -0.100000
vn 0.000000 -0.000000 -0.100000
f 57/169/169 58/170/170 60/171/171
f 60/171/171 58/170/170 59/172/172
f 61/173/173 57/174/174 62/175/175
f 62/175/175 57/174/174 60/176/176
f 63/177/177 61/178/178 64/179/179
f 64/179/179 61/178/178 62/180/180
f 58/181/181 63/182/182 59/183/183
f 59/183/183 63/182/182 64/184/184
f 59/185/185 64/186/186 60/187/187
f 60/187/187 64/186/186 62/188/188
f 58/189/189 57/190/190 63/191/191
f 63/191/191 57/190/190 61/192/192
g Body8

v 182.747363 -124.028171 0.000000
v -157.252637 -124.028171 0.000000
v -157.252637 -124.028171 30.000000
v 182.747363 -124.028171 30.000000
v 182.747363 215.971829 0.000000
v 182.747363 215.971829 30.000000
v -157.252637 215.971829 0.000000
v -157.252637 215.971829 30.000000
v 187.747363 220.971829 0.000000
v -162.252637 220.971829 0.000000
v -162.252637 220.971829 30.000000
v 187.747363 220.971829 30.000000
v 187.747363 -129.028171 0.000000
v 187.747363 -129.028171 30.000000
v -162.252637 -129.028171 0.000000
v -162.252637 -129.028171 30.000000
vt 0.000000 0.000000 0.000000
vt 34.000000 0.000000 0.000000
vt 0.000000 3.000000 0.000000
vt 34.000000 3.000000 0.000000
vt 0.000000 0.000000 0.000000
vt 34.000000 0.000000 0.000000
vt 0.000000 3.000000 0.000000
vt 34.000000 3.000000 0.000000
vt 0.000000 0.000000 0.000000
vt 34.000000 0.000000 0.000000
vt 0.000000 3.000000 0.000000
vt 34.000000 3.000000 0.000000
vt 0.000000 0.000000 0.000000
vt 34.000000 0.000000 0.000000
vt 0.000000 3.000000 0.000000
vt 34.000000 3.000000 0.000000
vt 0.000000 0.000000 0.000000
vt 35.000000 0.000000 0.000000
vt 0.000000 3.000000 0.000000
vt 35.000000 3.000000 0.000000
vt 0.000000 0.000000 0.000000
vt 35.000000 0.000000 0.000000
vt 0.000000 3.000000 0.000000
vt 35.000000 3.000000 0.000000
vt 0.000000 0.000000 0.000000
vt 35.000000 0.000000 0.000000
vt 0.000000 3.000000 0.000000
vt 35.000000 3.000000 0.000000
vt 0.000000 0.000000 0.000000
vt 35.000000 0.000000 0.000000
vt 0.000000 3.000000 0.000000
vt 35.000000 3.000000 0.000000
vt 17.000000 17.000000 0.000000
vt 17.000000 -17.000000 0.000000
vt 17.500000 -17.500000 0.000000
vt -17.000000 -17.000000 0.000000
vt -17.500000 -17.500000 0.000000
vt -17.000000 17.000000 0.000000
vt -17.500000 17.500000 0.000000
vt 17.500000 17.500000 0.000000
vt 17.000000 -17.000000 0.000000
vt 17.500000 -17.500000 0.000000
vt 17.000000 17.000000 0.000000
vt 17.500000 17.500000 0.000000
vt -17.500000 17.500000 0.000000
vt -17.000000 -17.000000 0.000000
vt -17.500000 -17.500000 0.000000
vt -17.000000 17.000000 0.000000
vn -0.000000 0.100000 0.000000
vn -0.000000 0.100000 0.000000
vn -0.000000 0.100000 0.000000
vn -0.000000 0.100000 0.000000
vn -0.100000 -0.000000 0.000000
vn -0.100000 -0.000000 0.000000
vn -0.100000 -0.000000 0.000000
vn -0.100000 -0.000000 0.000000
vn 0.000000 -0.100000 0.000000
vn 0.000000 -0.100000 0.000000
vn 0.000000 -0.100000 0.000000
vn 0.000000 -0.100000 0.000000
vn 0.100000 -0.000000 -0.000000
vn 0.100000 -0.000000 -0.000000
vn 0.100000 -0.000000 -0.000000
vn 0.100000 -0.000000 -0.000000
vn 0.000000 0.100000 0.000000
vn 0.000000 0.100000 0.000000
vn 0.000000 0.100000 0.000000
vn 0.000000 0.100000 0.000000
vn 0.100000 -0.000000 -0.000000
vn 0.100000 -0.000000 -0.000000
vn 0.100000 -0.000000 -0.000000
vn 0.100000 -0.000000 -0.000000
vn 0.000000 -0.100000 0.000000
vn 0.000000 -0.100000 0.000000
vn 0.000000 -0.100000 0.000000
vn 0.000000 -0.100000 0.000000
vn -0.100000 -0.000000 0.000000
vn -0.100000 -0.000000 0.000000
vn -0.100000 -0.000000 0.000000
vn -0.100000 -0.000000 0.000000
vn 0.000000 -0.000000 0.100000
vn 0.000000 -0.000000 0.100000
vn 0.000000 -0.000000 0.100000
vn 0.000000 -0.000000 0.100000
vn 0.000000 -0.000000 0.100000
vn 0.000000 -0.000000 0.100000
vn 0.000000 -0.000000 0.100000
vn 0.000000 -0.000000 0.100000
vn 0.000000 -0.000000 -0.100000
vn 0.000000 -0.000000 -0.100000
vn 0.000000 -0.000000 -0.100000
vn 0.000000 -0.000000 -0.100000
vn 0.000000 -0.000000 -0.100000
vn 0.000000 -0.000000 -0.100000
vn 0.000000 -0.000000 -0.100000
vn 0.000000 -0.000000 -0.100000
f 65/193/193 66/194/194 68/195/195
f 68/195/195 66/194/194 67/196/196
f 69/197/197 65/198/198 70/199/199
f 70/199/199 65/198/198 68/200/200
f 71/201/201 69/202/202 72/203/203
f 72/203/203 69/202/202 70/204/204
f 66/205/205 71/206/206 67/207/207
f 67/207/207 71/206/206 72/208/208
f 73/209/209 74/210/210 76/211/211
f 76/211/211 74/210/210 75/212/212
f 77/213/213 73/214/214 78/215/215
f 78/215/215 73/214/214 76/216/216
f 79/217/217 77/218/218 80/219/219
f 80/219/219 77/218/218 78/220/220
f 74/221/221 79/222/222 75/223/223
f 75/223/223 79/222/222 80/224/224
f 68/225/225 67/226/226 80/227/227
f 80/227/227 67/226/226 72/228/228
f 80/227/227 72/228/228 75/229/229
f 75/229/229 72/228/228 70/230/230
f 75/229/229 70/230/230 76/231/231
f 76/231/231 70/230/230 68/225/225
f 76/231/231 68/225/225 78/232/232
f 78/232/232 68/225/225 80/227/227
f 66/233/233 79/234/234 71/235/235
f 71/235/235 79/234/234 74/236/236
f 71/235/235 74/236/236 73/237/237
f 66/233/233 65/238/238 79/234/234
f 79/234/234 65/238/238 77/239/239
f 77/239/239 65/238/238 69/240/240
f 77/239/239 69/240/240 73/237/237
f 73/237/237 69/240/240 71/235/235
# 80 vertices
# 240 texture params
# 240 normals
# 136 facets

# 8 groups
