# WaveFront *.obj file (generated by Autodesk ATF)

mtllib shapefour3d.mtl

g Body4

v 0.000000 -5.000000 10.181475
v -18.695951 -5.000000 10.181475
v -18.695951 -15.000000 10.181475
v 0.000000 -15.000000 10.181475
v 0.000000 -5.000000 30.000000
v 0.000000 -15.000000 30.000000
v 7.500000 -5.000000 30.000000
v 7.500000 -15.000000 30.000000
v 7.500000 -5.000000 -30.000000
v 7.500000 -15.000000 -30.000000
v 0.000000 -5.000000 -30.000000
v 0.000000 -15.000000 -30.000000
v 0.000000 -5.000000 2.681475
v 0.000000 -15.000000 2.681475
v -26.195951 -5.000000 2.681475
v -26.195951 -15.000000 2.681475
v -26.195951 -5.000000 30.000000
v -26.195951 -15.000000 30.000000
v -18.695951 -5.000000 30.000000
v -18.695951 -15.000000 30.000000
vt -0.000000 0.000000 0.000000
vt 1.869595 0.000000 0.000000
vt 0.000000 1.000000 0.000000
vt 1.869595 1.000000 0.000000
vt 0.000000 0.000000 0.000000
vt 1.981852 0.000000 0.000000
vt 0.000000 1.000000 0.000000
vt 1.981852 1.000000 0.000000
vt 0.000000 0.000000 0.000000
vt 0.750000 0.000000 0.000000
vt 0.000000 1.000000 0.000000
vt 0.750000 1.000000 0.000000
vt 0.000000 0.000000 0.000000
vt 6.000000 0.000000 0.000000
vt 0.000000 1.000000 0.000000
vt 6.000000 1.000000 0.000000
vt 0.000000 0.000000 0.000000
vt 0.750000 0.000000 0.000000
vt 0.000000 1.000000 0.000000
vt 0.750000 1.000000 0.000000
vt 0.000000 0.000000 0.000000
vt 3.268148 0.000000 0.000000
vt 0.000000 1.000000 0.000000
vt 3.268148 1.000000 0.000000
vt 0.000000 0.000000 0.000000
vt 2.619595 0.000000 0.000000
vt 0.000000 1.000000 0.000000
vt 2.619595 1.000000 0.000000
vt -0.000000 0.000000 0.000000
vt 2.731852 -0.000000 0.000000
vt 0.000000 1.000000 0.000000
vt 2.731852 1.000000 0.000000
vt 0.000000 0.000000 0.000000
vt 0.750000 0.000000 0.000000
vt 0.000000 1.000000 0.000000
vt 0.750000 1.000000 0.000000
vt 0.000000 0.000000 0.000000
vt 1.981852 0.000000 0.000000
vt 0.000000 1.000000 0.000000
vt 1.981852 1.000000 0.000000
vt -3.000000 -0.934798 0.000000
vt -3.000000 -1.684798 0.000000
vt -1.018148 -0.934798 0.000000
vt -0.268148 -1.684798 0.000000
vt -0.268148 0.934798 0.000000
vt 3.000000 0.934798 0.000000
vt 3.000000 1.684798 0.000000
vt -3.000000 1.684798 0.000000
vt -1.018148 0.934798 0.000000
vt -3.000000 0.934798 0.000000
vt 0.934798 3.000000 0.000000
vt 0.934798 1.018148 0.000000
vt 1.684798 3.000000 0.000000
vt 1.684798 0.268148 0.000000
vt -0.934798 0.268148 0.000000
vt -0.934798 1.018148 0.000000
vt -1.684798 3.000000 0.000000
vt -0.934798 3.000000 0.000000
vt -1.684798 -3.000000 0.000000
vt -0.934798 -3.000000 0.000000
vn 0.000000 0.000000 0.100000
vn 0.000000 0.000000 0.100000
vn 0.000000 0.000000 0.100000
vn 0.000000 0.000000 0.100000
vn -0.100000 0.000000 0.000000
vn -0.100000 0.000000 0.000000
vn -0.100000 0.000000 0.000000
vn -0.100000 0.000000 0.000000
vn 0.000000 0.000000 0.100000
vn 0.000000 0.000000 0.100000
vn 0.000000 0.000000 0.100000
vn 0.000000 0.000000 0.100000
vn 0.100000 0.000000 0.000000
vn 0.100000 0.000000 0.000000
vn 0.100000 0.000000 0.000000
vn 0.100000 0.000000 0.000000
vn 0.000000 0.000000 -0.100000
vn 0.000000 0.000000 -0.100000
vn 0.000000 0.000000 -0.100000
vn 0.000000 0.000000 -0.100000
vn -0.100000 0.000000 0.000000
vn -0.100000 0.000000 0.000000
vn -0.100000 0.000000 0.000000
vn -0.100000 0.000000 0.000000
vn 0.000000 0.000000 -0.100000
vn 0.000000 0.000000 -0.100000
vn 0.000000 0.000000 -0.100000
vn 0.000000 0.000000 -0.100000
vn -0.100000 0.000000 0.000000
vn -0.100000 0.000000 0.000000
vn -0.100000 0.000000 0.000000
vn -0.100000 0.000000 0.000000
vn 0.000000 0.000000 0.100000
vn 0.000000 0.000000 0.100000
vn 0.000000 0.000000 0.100000
vn 0.000000 0.000000 0.100000
vn 0.100000 0.000000 0.000000
vn 0.100000 0.000000 0.000000
vn 0.100000 0.000000 0.000000
vn 0.100000 0.000000 0.000000
vn 0.000000 -0.100000 0.000000
vn 0.000000 -0.100000 0.000000
vn 0.000000 -0.100000 0.000000
vn 0.000000 -0.100000 0.000000
vn 0.000000 -0.100000 0.000000
vn 0.000000 -0.100000 0.000000
vn 0.000000 -0.100000 0.000000
vn 0.000000 -0.100000 0.000000
vn 0.000000 -0.100000 0.000000
vn 0.000000 -0.100000 0.000000
vn -0.000000 0.100000 -0.000000
vn -0.000000 0.100000 -0.000000
vn -0.000000 0.100000 -0.000000
vn -0.000000 0.100000 -0.000000
vn -0.000000 0.100000 -0.000000
vn -0.000000 0.100000 -0.000000
vn -0.000000 0.100000 -0.000000
vn -0.000000 0.100000 -0.000000
vn -0.000000 0.100000 -0.000000
vn -0.000000 0.100000 -0.000000
usemtl Steel_-_Satin
f 1/1/1 2/2/2 4/3/3
f 4/3/3 2/2/2 3/4/4
f 5/5/5 1/6/6 6/7/7
f 6/7/7 1/6/6 4/8/8
f 7/9/9 5/10/10 8/11/11
f 8/11/11 5/10/10 6/12/12
f 9/13/13 7/14/14 10/15/15
f 10/15/15 7/14/14 8/16/16
f 11/17/17 9/18/18 12/19/19
f 12/19/19 9/18/18 10/20/20
f 13/21/21 11/22/22 14/23/23
f 14/23/23 11/22/22 12/24/24
f 15/25/25 13/26/26 16/27/27
f 16/27/27 13/26/26 14/28/28
f 17/29/29 15/30/30 18/31/31
f 18/31/31 15/30/30 16/32/32
f 19/33/33 17/34/34 20/35/35
f 20/35/35 17/34/34 18/36/36
f 2/37/37 19/38/38 3/39/39
f 3/39/39 19/38/38 20/40/40
f 20/41/41 18/42/42 3/43/43
f 3/43/43 18/42/42 16/44/44
f 3/43/43 16/44/44 14/45/45
f 12/46/46 10/47/47 14/45/45
f 14/45/45 10/47/47 8/48/48
f 14/45/45 8/48/48 4/49/49
f 4/49/49 8/48/48 6/50/50
f 4/49/49 3/43/43 14/45/45
f 19/51/51 2/52/52 17/53/53
f 17/53/53 2/52/52 15/54/54
f 15/54/54 2/52/52 13/55/55
f 13/55/55 2/52/52 1/56/56
f 13/55/55 1/56/56 7/57/57
f 7/57/57 1/56/56 5/58/58
f 7/57/57 9/59/59 13/55/55
f 13/55/55 9/59/59 11/60/60
# 20 vertices
# 60 texture params
# 60 normals
# 36 facets

# 1 groups
