# WaveFront *.obj file (generated by Autodesk ATF)

mtllib Ashape3d.mtl

g Body2

v -0.000000 5.000000 -4.058623
v -19.822532 5.000000 8.326998
v -19.822532 15.000000 8.326998
v 0.000000 15.000000 -4.058623
v -11.874146 5.000000 12.204308
v 0.000000 5.000000 4.785041
v 0.000000 15.000000 4.785041
v -11.874146 15.000000 12.204308
v 0.000000 15.000000 17.996646
v 0.000000 5.000000 17.996646
v -43.137768 5.000000 -3.046428
v -43.137768 15.000000 -3.046428
v 0.000000 15.000000 -30.000000
v 0.000000 5.000000 -30.000000
v -46.425978 5.000000 3.694319
v 7.500000 5.000000 30.000000
v 7.500000 15.000000 30.000000
v -46.425978 15.000000 3.694319
v 7.500000 5.000000 -30.000000
v 7.500000 15.000000 -30.000000
vt 0.000000 0.000000 0.000000
vt 2.337384 0.000000 0.000000
vt 0.000000 1.000000 0.000000
vt 2.337384 1.000000 0.000000
vt -0.000000 0.000000 0.000000
vt 1.400146 0.000000 0.000000
vt -0.000000 1.000000 0.000000
vt 1.400146 1.000000 0.000000
vt 1.321161 1.000000 0.000000
vt -0.000000 1.000000 0.000000
vt 1.321161 0.000000 0.000000
vt -0.000000 0.000000 0.000000
vt 2.205527 0.000000 0.000000
vt 4.799665 0.000000 0.000000
vt 2.205527 1.000000 0.000000
vt 4.799665 1.000000 0.000000
vt 2.594138 1.000000 0.000000
vt 0.000000 1.000000 0.000000
vt 2.594138 0.000000 0.000000
vt 0.000000 0.000000 0.000000
vt 3.478504 0.000000 0.000000
vt 4.799665 0.000000 0.000000
vt 3.478504 1.000000 0.000000
vt 4.799665 1.000000 0.000000
vt -0.000000 0.000000 0.000000
vt 6.000000 0.000000 0.000000
vt -0.000000 1.000000 0.000000
vt 6.000000 1.000000 0.000000
vt 0.000000 0.000000 0.000000
vt 0.750000 0.000000 0.000000
vt -0.000000 1.000000 0.000000
vt 0.750000 1.000000 0.000000
vt 0.000000 0.000000 0.000000
vt 0.750000 0.000000 0.000000
vt 0.000000 1.000000 0.000000
vt 0.750000 1.000000 0.000000
vt -0.000000 0.000000 0.000000
vt 6.000000 0.000000 0.000000
vt -0.000000 1.000000 0.000000
vt 6.000000 1.000000 0.000000
vt -0.304643 -2.367478 0.000000
vt 0.369432 -2.696299 0.000000
vt 0.832700 -0.035954 0.000000
vt 3.000000 2.696299 0.000000
vt 1.220431 0.758884 0.000000
vt 1.799665 1.946299 0.000000
vt 0.478504 1.946299 0.000000
vt -0.405862 1.946299 0.000000
vt -3.000000 2.696299 0.000000
vt -3.000000 1.946299 0.000000
vt 1.946299 1.799665 0.000000
vt 2.696299 3.000000 0.000000
vt 0.758884 1.220431 0.000000
vt -0.035954 0.832700 0.000000
vt 1.946299 -0.405862 0.000000
vt 1.946299 0.478504 0.000000
vt 1.946299 -3.000000 0.000000
vt 2.696299 -3.000000 0.000000
vt -2.696299 0.369432 0.000000
vt -2.367478 -0.304643 0.000000
vn -0.052989 0.000000 -0.084806
vn -0.052989 0.000000 -0.084806
vn -0.052989 0.000000 -0.084806
vn -0.052989 0.000000 -0.084806
vn 0.052989 -0.000000 0.084806
vn 0.052989 -0.000000 0.084806
vn 0.052989 -0.000000 0.084806
vn 0.052989 -0.000000 0.084806
vn 0.043843 0.000000 -0.089877
vn 0.043843 0.000000 -0.089877
vn 0.043843 0.000000 -0.089877
vn 0.043843 0.000000 -0.089877
vn 0.043843 0.000000 -0.089877
vn 0.043843 0.000000 -0.089877
vn 0.043843 0.000000 -0.089877
vn 0.043843 0.000000 -0.089877
vn -0.100000 0.000000 0.000000
vn -0.100000 0.000000 0.000000
vn -0.100000 0.000000 0.000000
vn -0.100000 0.000000 0.000000
vn -0.100000 0.000000 0.000000
vn -0.100000 0.000000 0.000000
vn -0.100000 0.000000 0.000000
vn -0.100000 0.000000 0.000000
vn -0.043843 0.000000 0.089877
vn -0.043843 0.000000 0.089877
vn -0.043843 0.000000 0.089877
vn -0.043843 0.000000 0.089877
vn -0.089877 0.000000 -0.043843
vn -0.089877 0.000000 -0.043843
vn -0.089877 0.000000 -0.043843
vn -0.089877 0.000000 -0.043843
vn 0.000000 0.000000 -0.100000
vn 0.000000 0.000000 -0.100000
vn 0.000000 0.000000 -0.100000
vn 0.000000 0.000000 -0.100000
vn 0.100000 -0.000000 0.000000
vn 0.100000 -0.000000 0.000000
vn 0.100000 -0.000000 0.000000
vn 0.100000 -0.000000 0.000000
vn 0.000000 0.100000 0.000000
vn 0.000000 0.100000 0.000000
vn 0.000000 0.100000 0.000000
vn 0.000000 0.100000 0.000000
vn 0.000000 0.100000 0.000000
vn 0.000000 0.100000 0.000000
vn 0.000000 0.100000 0.000000
vn 0.000000 0.100000 0.000000
vn 0.000000 0.100000 0.000000
vn 0.000000 0.100000 0.000000
vn 0.000000 -0.100000 0.000000
vn 0.000000 -0.100000 0.000000
vn 0.000000 -0.100000 0.000000
vn 0.000000 -0.100000 0.000000
vn 0.000000 -0.100000 0.000000
vn 0.000000 -0.100000 0.000000
vn 0.000000 -0.100000 0.000000
vn 0.000000 -0.100000 0.000000
vn 0.000000 -0.100000 0.000000
vn 0.000000 -0.100000 0.000000
usemtl Steel_-_Satin
f 1/1/1 2/2/2 4/3/3
f 4/3/3 2/2/2 3/4/4
f 5/5/5 6/6/6 8/7/7
f 8/7/7 6/6/6 7/8/8
f 8/9/9 9/10/10 5/11/11
f 5/11/11 9/10/10 10/12/12
f 2/13/13 11/14/14 3/15/15
f 3/15/15 11/14/14 12/16/16
f 4/17/17 13/18/18 1/19/19
f 1/19/19 13/18/18 14/20/20
f 6/21/21 10/22/22 7/23/23
f 7/23/23 10/22/22 9/24/24
f 15/25/25 16/26/26 18/27/27
f 18/27/27 16/26/26 17/28/28
f 11/29/29 15/30/30 12/31/31
f 12/31/31 15/30/30 18/32/32
f 19/33/33 14/34/34 20/35/35
f 20/35/35 14/34/34 13/36/36
f 16/37/37 19/38/38 17/39/39
f 17/39/39 19/38/38 20/40/40
f 12/41/41 18/42/42 3/43/43
f 3/43/43 18/42/42 17/44/44
f 3/43/43 17/44/44 8/45/45
f 8/45/45 17/44/44 9/46/46
f 9/46/46 17/44/44 7/47/47
f 7/47/47 17/44/44 4/48/48
f 7/47/47 4/48/48 8/45/45
f 8/45/45 4/48/48 3/43/43
f 17/44/44 20/49/49 4/48/48
f 4/48/48 20/49/49 13/50/50
f 10/51/51 16/52/52 5/53/53
f 5/53/53 16/52/52 2/54/54
f 5/53/53 2/54/54 1/55/55
f 16/52/52 10/51/51 6/56/56
f 16/52/52 6/56/56 1/55/55
f 1/55/55 6/56/56 5/53/53
f 14/57/57 19/58/58 1/55/55
f 1/55/55 19/58/58 16/52/52
f 16/52/52 15/59/59 2/54/54
f 2/54/54 15/59/59 11/60/60
# 20 vertices
# 60 texture params
# 60 normals
# 40 facets

# 1 groups
