# WaveFront *.obj file (generated by Autodesk ATF)

mtllib env1.mtl

g Body2

v 139.968281 60.000000 -63.267099
v 139.968281 45.000000 -63.267099
v 139.968281 45.000000 -75.238099
v 139.968281 60.000000 -75.238099
v 50.659281 60.000000 -63.267099
v 50.659281 60.000000 -75.238099
v 50.659281 45.000000 -63.267099
v 50.659281 45.000000 -75.238099
vt -0.598550 -0.750000 0.000000
vt 0.598550 -0.750000 0.000000
vt -0.598550 0.750000 0.000000
vt 0.598550 0.750000 0.000000
vt 0.598550 6.465450 0.000000
vt -0.598550 6.465450 0.000000
vt 0.598550 -2.465450 0.000000
vt -0.598550 -2.465450 0.000000
vt -0.598550 -2.465450 0.000000
vt 0.598550 -2.465450 0.000000
vt -0.598550 6.465450 0.000000
vt 0.598550 6.465450 0.000000
vt -0.750000 -0.598550 0.000000
vt 0.750000 -0.598550 0.000000
vt -0.750000 0.598550 0.000000
vt 0.750000 0.598550 0.000000
vt -0.750000 -2.465450 0.000000
vt 0.750000 -2.465450 0.000000
vt -0.750000 6.465450 0.000000
vt 0.750000 6.465450 0.000000
vt -0.750000 -2.465450 0.000000
vt 0.750000 -2.465450 0.000000
vt -0.750000 6.465450 0.000000
vt 0.750000 6.465450 0.000000
vn 0.100000 -0.000000 0.000000
vn 0.100000 -0.000000 0.000000
vn 0.100000 -0.000000 0.000000
vn 0.100000 -0.000000 0.000000
vn 0.000000 0.100000 0.000000
vn 0.000000 0.100000 0.000000
vn 0.000000 0.100000 0.000000
vn 0.000000 0.100000 0.000000
vn -0.000000 -0.100000 0.000000
vn -0.000000 -0.100000 0.000000
vn -0.000000 -0.100000 0.000000
vn -0.000000 -0.100000 0.000000
vn -0.100000 0.000000 -0.000000
vn -0.100000 0.000000 -0.000000
vn -0.100000 0.000000 -0.000000
vn -0.100000 0.000000 -0.000000
vn 0.000000 0.000000 -0.100000
vn 0.000000 0.000000 -0.100000
vn 0.000000 0.000000 -0.100000
vn 0.000000 0.000000 -0.100000
vn 0.000000 0.000000 0.100000
vn 0.000000 0.000000 0.100000
vn 0.000000 0.000000 0.100000
vn 0.000000 0.000000 0.100000
usemtl Steel_-_Satin
f 2/1/1 3/2/2 1/3/3
f 1/3/3 3/2/2 4/4/4
f 1/5/5 4/6/6 5/7/7
f 5/7/7 4/6/6 6/8/8
f 7/9/9 8/10/10 2/11/11
f 2/11/11 8/10/10 3/12/12
f 6/13/13 8/14/14 5/15/15
f 5/15/15 8/14/14 7/16/16
f 8/17/17 6/18/18 3/19/19
f 3/19/19 6/18/18 4/20/20
f 5/21/21 7/22/22 1/23/23
f 1/23/23 7/22/22 2/24/24
g Body3

v 139.968281 60.000000 -133.267099
v 139.968281 45.000000 -133.267099
v 139.968281 45.000000 -145.238099
v 139.968281 60.000000 -145.238099
v 50.659281 60.000000 -133.267099
v 50.659281 60.000000 -145.238099
v 50.659281 45.000000 -133.267099
v 50.659281 45.000000 -145.238099
vt -0.598550 -0.750000 0.000000
vt 0.598550 -0.750000 0.000000
vt -0.598550 0.750000 0.000000
vt 0.598550 0.750000 0.000000
vt 0.598550 6.465450 0.000000
vt -0.598550 6.465450 0.000000
vt 0.598550 -2.465450 0.000000
vt -0.598550 -2.465450 0.000000
vt -0.598550 -2.465450 0.000000
vt 0.598550 -2.465450 0.000000
vt -0.598550 6.465450 0.000000
vt 0.598550 6.465450 0.000000
vt -0.750000 -0.598550 0.000000
vt 0.750000 -0.598550 0.000000
vt -0.750000 0.598550 0.000000
vt 0.750000 0.598550 0.000000
vt -0.750000 -2.465450 0.000000
vt 0.750000 -2.465450 0.000000
vt -0.750000 6.465450 0.000000
vt 0.750000 6.465450 0.000000
vt -0.750000 -2.465450 0.000000
vt 0.750000 -2.465450 0.000000
vt -0.750000 6.465450 0.000000
vt 0.750000 6.465450 0.000000
vn 0.100000 -0.000000 0.000000
vn 0.100000 -0.000000 0.000000
vn 0.100000 -0.000000 0.000000
vn 0.100000 -0.000000 0.000000
vn 0.000000 0.100000 0.000000
vn 0.000000 0.100000 0.000000
vn 0.000000 0.100000 0.000000
vn 0.000000 0.100000 0.000000
vn -0.000000 -0.100000 0.000000
vn -0.000000 -0.100000 0.000000
vn -0.000000 -0.100000 0.000000
vn -0.000000 -0.100000 0.000000
vn -0.100000 0.000000 -0.000000
vn -0.100000 0.000000 -0.000000
vn -0.100000 0.000000 -0.000000
vn -0.100000 0.000000 -0.000000
vn 0.000000 0.000000 -0.100000
vn 0.000000 0.000000 -0.100000
vn 0.000000 0.000000 -0.100000
vn 0.000000 0.000000 -0.100000
vn 0.000000 0.000000 0.100000
vn 0.000000 0.000000 0.100000
vn 0.000000 0.000000 0.100000
vn 0.000000 0.000000 0.100000
f 10/25/25 11/26/26 9/27/27
f 9/27/27 11/26/26 12/28/28
f 9/29/29 12/30/30 13/31/31
f 13/31/31 12/30/30 14/32/32
f 15/33/33 16/34/34 10/35/35
f 10/35/35 16/34/34 11/36/36
f 14/37/37 16/38/38 13/39/39
f 13/39/39 16/38/38 15/40/40
f 16/41/41 14/42/42 11/43/43
f 11/43/43 14/42/42 12/44/44
f 13/45/45 15/46/46 9/47/47
f 9/47/47 15/46/46 10/48/48
g Body4

v 50.659281 120.000000 -48.267099
v 50.659281 105.000000 -48.267099
v 139.968281 105.000000 -48.267099
v 139.968281 120.000000 -48.267099
v 139.968281 105.000000 -100.238099
v 139.968281 120.000000 -100.238099
v 50.659281 120.000000 -100.238099
v 50.659281 105.000000 -100.238099
vt -2.465450 -0.750000 0.000000
vt 6.465450 -0.750000 0.000000
vt -2.465450 0.750000 0.000000
vt 6.465450 0.750000 0.000000
vt -4.598550 -0.750000 0.000000
vt 0.598550 -0.750000 0.000000
vt -4.598550 0.750000 0.000000
vt 0.598550 0.750000 0.000000
vt 4.598550 6.465450 0.000000
vt -0.598550 6.465450 0.000000
vt 4.598550 -2.465450 0.000000
vt -0.598550 -2.465450 0.000000
vt -4.598550 -2.465450 0.000000
vt 0.598550 -2.465450 0.000000
vt -4.598550 6.465450 0.000000
vt 0.598550 6.465450 0.000000
vt -0.750000 -0.598550 0.000000
vt 0.750000 -0.598550 0.000000
vt -0.750000 4.598550 0.000000
vt 0.750000 4.598550 0.000000
vt -0.750000 -2.465450 0.000000
vt 0.750000 -2.465450 0.000000
vt -0.750000 6.465450 0.000000
vt 0.750000 6.465450 0.000000
vn 0.000000 0.000000 0.100000
vn 0.000000 0.000000 0.100000
vn 0.000000 0.000000 0.100000
vn 0.000000 0.000000 0.100000
vn 0.100000 -0.000000 0.000000
vn 0.100000 -0.000000 0.000000
vn 0.100000 -0.000000 0.000000
vn 0.100000 -0.000000 0.000000
vn 0.000000 0.100000 0.000000
vn 0.000000 0.100000 0.000000
vn 0.000000 0.100000 0.000000
vn 0.000000 0.100000 0.000000
vn -0.000000 -0.100000 0.000000
vn -0.000000 -0.100000 0.000000
vn -0.000000 -0.100000 0.000000
vn -0.000000 -0.100000 0.000000
vn -0.100000 0.000000 -0.000000
vn -0.100000 0.000000 -0.000000
vn -0.100000 0.000000 -0.000000
vn -0.100000 0.000000 -0.000000
vn 0.000000 0.000000 -0.100000
vn 0.000000 0.000000 -0.100000
vn 0.000000 0.000000 -0.100000
vn 0.000000 0.000000 -0.100000
f 18/49/49 19/50/50 17/51/51
f 17/51/51 19/50/50 20/52/52
f 19/53/53 21/54/54 20/55/55
f 20/55/55 21/54/54 22/56/56
f 20/57/57 22/58/58 17/59/59
f 17/59/59 22/58/58 23/60/60
f 18/61/61 24/62/62 19/63/63
f 19/63/63 24/62/62 21/64/64
f 23/65/65 24/66/66 17/67/67
f 17/67/67 24/66/66 18/68/68
f 24/69/69 23/70/70 21/71/71
f 21/71/71 23/70/70 22/72/72
g Body5

v 139.968281 115.000000 -143.267099
v 139.968281 100.000000 -143.267099
v 139.968281 100.000000 -155.238099
v 139.968281 115.000000 -155.238099
v 50.659281 115.000000 -143.267099
v 50.659281 115.000000 -155.238099
v 50.659281 100.000000 -143.267099
v 50.659281 100.000000 -155.238099
vt -0.598550 -0.750000 0.000000
vt 0.598550 -0.750000 0.000000
vt -0.598550 0.750000 0.000000
vt 0.598550 0.750000 0.000000
vt 0.598550 6.465450 0.000000
vt -0.598550 6.465450 0.000000
vt 0.598550 -2.465450 0.000000
vt -0.598550 -2.465450 0.000000
vt -0.598550 -2.465450 0.000000
vt 0.598550 -2.465450 0.000000
vt -0.598550 6.465450 0.000000
vt 0.598550 6.465450 0.000000
vt -0.750000 -0.598550 0.000000
vt 0.750000 -0.598550 0.000000
vt -0.750000 0.598550 0.000000
vt 0.750000 0.598550 0.000000
vt -0.750000 -2.465450 0.000000
vt 0.750000 -2.465450 0.000000
vt -0.750000 6.465450 0.000000
vt 0.750000 6.465450 0.000000
vt -0.750000 -2.465450 0.000000
vt 0.750000 -2.465450 0.000000
vt -0.750000 6.465450 0.000000
vt 0.750000 6.465450 0.000000
vn 0.100000 -0.000000 0.000000
vn 0.100000 -0.000000 0.000000
vn 0.100000 -0.000000 0.000000
vn 0.100000 -0.000000 0.000000
vn 0.000000 0.100000 0.000000
vn 0.000000 0.100000 0.000000
vn 0.000000 0.100000 0.000000
vn 0.000000 0.100000 0.000000
vn -0.000000 -0.100000 0.000000
vn -0.000000 -0.100000 0.000000
vn -0.000000 -0.100000 0.000000
vn -0.000000 -0.100000 0.000000
vn -0.100000 0.000000 -0.000000
vn -0.100000 0.000000 -0.000000
vn -0.100000 0.000000 -0.000000
vn -0.100000 0.000000 -0.000000
vn 0.000000 0.000000 -0.100000
vn 0.000000 0.000000 -0.100000
vn 0.000000 0.000000 -0.100000
vn 0.000000 0.000000 -0.100000
vn 0.000000 0.000000 0.100000
vn 0.000000 0.000000 0.100000
vn 0.000000 0.000000 0.100000
vn 0.000000 0.000000 0.100000
f 26/73/73 27/74/74 25/75/75
f 25/75/75 27/74/74 28/76/76
f 25/77/77 28/78/78 29/79/79
f 29/79/79 28/78/78 30/80/80
f 31/81/81 32/82/82 26/83/83
f 26/83/83 32/82/82 27/84/84
f 30/85/85 32/86/86 29/87/87
f 29/87/87 32/86/86 31/88/88
f 32/89/89 30/90/90 27/91/91
f 27/91/91 30/90/90 28/92/92
f 29/93/93 31/94/94 25/95/95
f 25/95/95 31/94/94 26/96/96
g wall (2)

v 199.734133 140.000000 -210.252000
v 0.000133 140.000000 -210.252000
v 0.000133 140.000000 0.000000
v 199.734133 140.000000 0.000000
v 0.000133 0.000000 -210.252000
v 199.734133 0.000000 -210.252000
v 199.734133 0.000000 0.000000
v 0.000133 0.000000 0.000000
vt 10.512600 9.986700 0.000000
vt -10.512600 9.986700 0.000000
vt 10.512600 -9.986700 0.000000
vt -10.512600 -9.986700 0.000000
vt -10.512600 -9.986700 0.000000
vt 10.512600 -9.986700 0.000000
vt -10.512600 9.986700 0.000000
vt 10.512600 9.986700 0.000000
vt -7.000000 -10.512600 0.000000
vt 7.000000 -10.512600 0.000000
vt -7.000000 10.512600 0.000000
vt 7.000000 10.512600 0.000000
vt 7.000000 9.986700 0.000000
vt -7.000000 9.986700 0.000000
vt 7.000000 -9.986700 0.000000
vt -7.000000 -9.986700 0.000000
vt 7.000000 10.512600 0.000000
vt -7.000000 10.512600 0.000000
vt 7.000000 -10.512600 0.000000
vt -7.000000 -10.512600 0.000000
vt -7.000000 -9.986700 0.000000
vt 7.000000 -9.986700 0.000000
vt -7.000000 9.986700 0.000000
vt 7.000000 9.986700 0.000000
vn 0.000000 0.100000 0.000000
vn 0.000000 0.100000 0.000000
vn 0.000000 0.100000 0.000000
vn 0.000000 0.100000 0.000000
vn 0.000000 -0.100000 0.000000
vn 0.000000 -0.100000 0.000000
vn 0.000000 -0.100000 0.000000
vn 0.000000 -0.100000 0.000000
vn 0.100000 0.000000 0.000000
vn 0.100000 0.000000 0.000000
vn 0.100000 0.000000 0.000000
vn 0.100000 0.000000 0.000000
vn 0.000000 0.000000 0.100000
vn 0.000000 0.000000 0.100000
vn 0.000000 0.000000 0.100000
vn 0.000000 0.000000 0.100000
vn -0.100000 0.000000 0.000000
vn -0.100000 0.000000 0.000000
vn -0.100000 0.000000 0.000000
vn -0.100000 0.000000 0.000000
vn 0.000000 0.000000 -0.100000
vn 0.000000 0.000000 -0.100000
vn 0.000000 0.000000 -0.100000
vn 0.000000 0.000000 -0.100000
f 34/97/97 35/98/98 33/99/99
f 33/99/99 35/98/98 36/100/100
f 38/101/101 39/102/102 37/103/103
f 37/103/103 39/102/102 40/104/104
f 36/105/105 39/106/106 33/107/107
f 33/107/107 39/106/106 38/108/108
f 35/109/109 40/110/110 36/111/111
f 36/111/111 40/110/110 39/112/112
f 34/113/113 37/114/114 35/115/115
f 35/115/115 37/114/114 40/116/116
f 33/117/117 38/118/118 34/119/119
f 34/119/119 38/118/118 37/120/120
# 40 vertices
# 120 texture params
# 120 normals
# 60 facets

# 5 groups
