# WaveFront *.obj file (generated by Autodesk ATF)

mtllib env2real.mtl

g Body1

v 139.968281 45.000000 -45.238099
v 50.659281 45.000000 -45.238099
v 50.659281 59.488887 -49.120384
v 139.968281 59.488887 -49.120384
v 139.968281 71.071762 -5.892508
v 139.968281 56.582875 -2.010222
v 50.659281 64.878151 -29.007378
v 50.659281 50.389264 -25.125092
vt -6.465450 -0.750000 0.000000
vt 2.465450 -0.750000 0.000000
vt -6.465450 0.750000 0.000000
vt 2.465450 0.750000 0.000000
vt -1.876729 -0.750000 0.000000
vt 2.598550 -0.750000 0.000000
vt -1.876729 0.750000 0.000000
vt 2.598550 0.750000 0.000000
vt 1.876729 6.465450 0.000000
vt -2.598550 6.465450 0.000000
vt -0.516298 -2.465450 0.000000
vt -2.598550 -2.465450 0.000000
vt -1.876729 6.465450 0.000000
vt 0.516298 -2.465450 0.000000
vt 2.598550 6.465450 0.000000
vt 2.598550 -2.465450 0.000000
vt 0.750000 -0.516298 0.000000
vt -0.750000 -0.516298 0.000000
vt 0.750000 -2.598550 0.000000
vt -0.750000 -2.598550 0.000000
vt -0.750000 -2.612223 0.000000
vt 0.750000 -2.612223 0.000000
vt -0.750000 6.633725 0.000000
vt 0.750000 6.633725 0.000000
vn 0.000000 -0.025882 -0.096593
vn 0.000000 -0.025882 -0.096593
vn 0.000000 -0.025882 -0.096593
vn 0.000000 -0.025882 -0.096593
vn 0.100000 -0.000000 0.000000
vn 0.100000 -0.000000 0.000000
vn 0.100000 -0.000000 0.000000
vn 0.100000 -0.000000 0.000000
vn 0.000000 0.096593 -0.025882
vn 0.000000 0.096593 -0.025882
vn 0.000000 0.096593 -0.025882
vn 0.000000 0.096593 -0.025882
vn -0.000000 -0.096593 0.025882
vn -0.000000 -0.096593 0.025882
vn -0.000000 -0.096593 0.025882
vn -0.000000 -0.096593 0.025882
vn -0.100000 0.000000 -0.000000
vn -0.100000 0.000000 -0.000000
vn -0.100000 0.000000 -0.000000
vn -0.100000 0.000000 -0.000000
vn -0.025882 0.025000 0.093301
vn -0.025882 0.025000 0.093301
vn -0.025882 0.025000 0.093301
vn -0.025882 0.025000 0.093301
usemtl Steel_-_Satin
f 1/1/1 2/2/2 4/3/3
f 4/3/3 2/2/2 3/4/4
f 6/5/5 1/6/6 5/7/7
f 5/7/7 1/6/6 4/8/8
f 5/9/9 4/10/10 7/11/11
f 7/11/11 4/10/10 3/12/12
f 6/13/13 8/14/14 1/15/15
f 1/15/15 8/14/14 2/16/16
f 8/17/17 7/18/18 2/19/19
f 2/19/19 7/18/18 3/20/20
f 7/21/21 8/22/22 5/23/23
f 5/23/23 8/22/22 6/24/24
g Body2

v 140.677243 108.083733 -97.447039
v 139.457399 94.286676 -103.204923
v 134.039776 80.221292 -68.353651
v 135.259619 94.018348 -62.595767
v 148.640007 93.082003 -102.263674
v 143.222384 79.016619 -67.412402
v 149.859851 106.879059 -96.505790
v 144.442227 92.813675 -61.654518
vt 1.023602 0.396309 0.000000
vt 0.463254 -0.995097 0.000000
vt 4.545806 -1.022157 0.000000
vt 3.985458 -2.413563 0.000000
vt -4.598550 0.534550 0.000000
vt -0.801450 0.534550 0.000000
vt -4.598550 1.465450 0.000000
vt -0.801450 1.465450 0.000000
vt -0.534550 0.750000 0.000000
vt -1.465450 0.750000 0.000000
vt -0.534550 -0.750000 0.000000
vt -1.465450 -0.750000 0.000000
vt -1.023602 0.396309 0.000000
vt -4.545806 -1.022157 0.000000
vt -0.463254 -0.995097 0.000000
vt -3.985458 -2.413563 0.000000
vt 0.801450 0.534550 0.000000
vt 4.598550 0.534550 0.000000
vt 0.801450 1.465450 0.000000
vt 4.598550 1.465450 0.000000
vt 0.534550 -0.750000 0.000000
vt 1.465450 -0.750000 0.000000
vt 0.534550 0.750000 0.000000
vt 1.465450 0.750000 0.000000
vn -0.098642 0.012941 -0.010111
vn -0.098642 0.012941 -0.010111
vn -0.098642 0.012941 -0.010111
vn -0.098642 0.012941 -0.010111
vn -0.008132 -0.091980 -0.038386
vn -0.008132 -0.091980 -0.038386
vn -0.008132 -0.091980 -0.038386
vn -0.008132 -0.091980 -0.038386
vn 0.014268 0.037042 -0.091784
vn 0.014268 0.037042 -0.091784
vn 0.014268 0.037042 -0.091784
vn 0.014268 0.037042 -0.091784
vn 0.098642 -0.012941 0.010111
vn 0.098642 -0.012941 0.010111
vn 0.098642 -0.012941 0.010111
vn 0.098642 -0.012941 0.010111
vn 0.008132 0.091980 0.038386
vn 0.008132 0.091980 0.038386
vn 0.008132 0.091980 0.038386
vn 0.008132 0.091980 0.038386
vn -0.014268 -0.037042 0.091784
vn -0.014268 -0.037042 0.091784
vn -0.014268 -0.037042 0.091784
vn -0.014268 -0.037042 0.091784
f 9/25/25 10/26/26 12/27/27
f 12/27/27 10/26/26 11/28/28
f 11/29/29 10/30/30 14/31/31
f 14/31/31 10/30/30 13/32/32
f 9/33/33 15/34/34 10/35/35
f 10/35/35 15/34/34 13/36/36
f 15/37/37 16/38/38 13/39/39
f 13/39/39 16/38/38 14/40/40
f 9/41/41 12/42/42 15/43/43
f 15/43/43 12/42/42 16/44/44
f 11/45/45 14/46/46 12/47/47
f 12/47/47 14/46/46 16/48/48
g wall (1)

v 200.120461 155.090254 -199.139367
v 200.120461 156.090254 -199.139367
v 200.241461 156.090254 -199.139367
v 200.241461 155.090254 -199.139367
v 200.120461 155.090254 19.102633
v 200.120461 155.090254 9.981633
v 200.241461 155.090254 9.981633
v 200.241461 155.090254 19.102633
v 200.120461 155.090254 -190.018367
v 200.241461 155.090254 -190.018367
v 200.120461 156.090254 19.102633
v 200.241461 156.090254 19.102633
v 200.120461 16.090254 -190.018367
v 200.120461 16.090254 -200.139367
v 200.120461 156.090254 -200.139367
v 200.241461 16.090254 -190.018367
v 200.120461 156.090254 20.102633
v 200.120461 16.090254 20.102633
v 200.120461 16.090254 9.981633
v 0.120461 156.090254 -200.139367
v 0.120461 156.090254 20.102633
v 200.241461 16.090254 9.981633
v 199.659618 16.090254 20.102633
v 199.659618 16.090254 20.237416
v 0.120618 16.090254 20.237416
v 0.120618 16.090254 20.102633
v 0.120461 16.090254 20.102633
v 0.120461 16.090254 -200.139367
v 0.120618 16.090254 -200.139367
v 0.120618 16.090254 -200.219584
v 199.659618 16.090254 -200.219584
v 199.659618 16.090254 -200.139367
v 199.659618 26.090254 20.102633
v 0.120618 26.090254 20.102633
v 0.120618 26.090254 20.237416
v 199.659618 26.090254 20.237416
v 0.120618 26.090254 -200.139367
v 199.659618 26.090254 -200.139367
v 199.659618 26.090254 -200.219584
v 0.120618 26.090254 -200.219584
v 199.241461 155.090254 -199.139367
v 1.120461 155.090254 -199.139367
v 1.120461 17.090254 -199.139367
v 199.241461 17.090254 -199.139367
v 199.241461 155.090254 19.102633
v 199.241461 17.090254 19.102633
v 1.120461 17.090254 19.102633
v 1.120461 155.090254 19.102633
vt 0.000000 19.900000 0.000000
vt 0.100000 19.900000 0.000000
vt 0.000000 19.912100 0.000000
vt 0.100000 19.912100 0.000000
vt 0.000000 19.900000 0.000000
vt 0.912100 19.900000 0.000000
vt 0.000000 19.912100 0.000000
vt 0.912100 19.912100 0.000000
vt 20.912100 19.900000 0.000000
vt 21.824200 19.900000 0.000000
vt 20.912100 19.912100 0.000000
vt 21.824200 19.912100 0.000000
vt -0.000000 19.900000 0.000000
vt 0.100000 19.900000 0.000000
vt -0.000000 19.912100 0.000000
vt 0.100000 19.912100 0.000000
vt -7.000000 0.406050 0.000000
vt -6.900000 0.406050 0.000000
vt -7.000000 0.506050 0.000000
vt 7.000000 0.506050 0.000000
vt 7.000000 -0.506050 0.000000
vt -6.900000 -0.506050 0.000000
vt 6.900000 0.506050 0.000000
vt -7.000000 0.506050 0.000000
vt 6.900000 0.493950 0.000000
vt -7.000000 0.493950 0.000000
vt 6.900000 -0.506050 0.000000
vt 6.900000 0.406050 0.000000
vt -7.000000 -0.506050 0.000000
vt -7.000000 0.506050 0.000000
vt 7.000000 0.506050 0.000000
vt 7.000000 0.406050 0.000000
vt 0.493950 11.012100 0.000000
vt -19.506050 11.012100 0.000000
vt 0.493950 10.912100 0.000000
vt -19.506050 -11.012100 0.000000
vt 0.493950 -10.912100 0.000000
vt 0.493950 -11.012100 0.000000
vt 0.506050 -10.912100 0.000000
vt 0.506050 10.912100 0.000000
vt 7.000000 -10.000000 0.000000
vt -6.900000 10.000000 0.000000
vt -6.900000 -10.000000 0.000000
vt -7.000000 -10.912100 0.000000
vt -6.900000 -10.912100 0.000000
vt 7.000000 10.000000 0.000000
vt -6.900000 10.912100 0.000000
vt -7.000000 10.912100 0.000000
vt -6.900000 0.493950 0.000000
vt 7.000000 0.493950 0.000000
vt -6.900000 0.506050 0.000000
vt 7.000000 0.506050 0.000000
vt -0.506050 10.000000 0.000000
vt -0.506050 9.953916 0.000000
vt 0.506050 10.000000 0.000000
vt -0.506050 -9.999984 0.000000
vt 21.518150 -9.999984 0.000000
vt 21.518150 -10.000000 0.000000
vt -0.506050 -10.000000 0.000000
vt -0.519528 9.953916 0.000000
vt -0.519528 -9.999984 0.000000
vt 21.526172 -9.999984 0.000000
vt 21.518150 9.953916 0.000000
vt 20.506050 10.000000 0.000000
vt 0.506050 10.012100 0.000000
vt 20.506050 10.012100 0.000000
vt 21.526172 9.953916 0.000000
vt 21.518150 10.000000 0.000000
vt -11.009372 9.976950 0.000000
vt -11.022850 9.976950 0.000000
vt -11.009372 -9.976950 0.000000
vt -11.022850 -9.976950 0.000000
vt 11.014828 -9.976950 0.000000
vt 11.022850 -9.976950 0.000000
vt 11.014828 9.976950 0.000000
vt 11.022850 9.976950 0.000000
vt 0.500000 -11.009372 0.000000
vt -0.500000 -11.009372 0.000000
vt 0.500000 -11.022850 0.000000
vt -0.500000 -11.022850 0.000000
vt -0.500000 11.014828 0.000000
vt 0.500000 11.014828 0.000000
vt -0.500000 11.022850 0.000000
vt 0.500000 11.022850 0.000000
vt 0.500000 -11.009372 0.000000
vt -0.500000 -11.009372 0.000000
vt 0.500000 -11.022850 0.000000
vt -0.500000 -11.022850 0.000000
vt 0.500000 9.976950 0.000000
vt -0.500000 9.976950 0.000000
vt 0.500000 -9.976950 0.000000
vt -0.500000 -9.976950 0.000000
vt -0.500000 11.014828 0.000000
vt 0.500000 11.014828 0.000000
vt -0.500000 11.022850 0.000000
vt 0.500000 11.022850 0.000000
vt -0.500000 -9.976950 0.000000
vt 0.500000 -9.976950 0.000000
vt -0.500000 9.976950 0.000000
vt 0.500000 9.976950 0.000000
vt 7.000000 -9.953916 0.000000
vt 6.000000 -9.953916 0.000000
vt 7.000000 -10.000000 0.000000
vt -7.000000 -10.000000 0.000000
vt -7.000000 10.000000 0.000000
vt 6.000000 9.999984 0.000000
vt 7.000000 10.000000 0.000000
vt 7.000000 9.999984 0.000000
vt 7.000000 -9.999984 0.000000
vt 6.000000 -9.999984 0.000000
vt 7.000000 -10.000000 0.000000
vt -7.000000 -10.000000 0.000000
vt 6.000000 9.953916 0.000000
vt -7.000000 10.000000 0.000000
vt 7.000000 10.000000 0.000000
vt 7.000000 9.953916 0.000000
vt 7.000000 0.506050 0.000000
vt -7.000000 0.506050 0.000000
vt 7.000000 -21.518150 0.000000
vt -7.000000 -21.518150 0.000000
vt 9.912100 6.900000 0.000000
vt -9.900000 6.900000 0.000000
vt 9.912100 -6.900000 0.000000
vt -9.900000 -6.900000 0.000000
vt 10.912100 6.900000 0.000000
vt -10.912100 6.900000 0.000000
vt 10.912100 -6.900000 0.000000
vt -10.912100 -6.900000 0.000000
vt -10.914828 -9.876966 0.000000
vt 10.909372 -9.876966 0.000000
vt -10.914828 9.935134 0.000000
vt 10.909372 9.935134 0.000000
vt 9.900000 6.900000 0.000000
vt -9.912100 6.900000 0.000000
vt 9.900000 -6.900000 0.000000
vt -9.912100 -6.900000 0.000000
vt 10.912100 6.900000 0.000000
vt -10.912100 6.900000 0.000000
vt 10.912100 -6.900000 0.000000
vt -10.912100 -6.900000 0.000000
vt 21.824200 19.812100 0.000000
vt 0.000000 19.812100 0.000000
vt 21.824200 0.000000 0.000000
vt 0.000000 0.000000 0.000000
vn 0.000000 0.000000 -0.100000
vn 0.000000 0.000000 -0.100000
vn 0.000000 0.000000 -0.100000
vn 0.000000 0.000000 -0.100000
vn -0.000000 -0.100000 -0.000000
vn -0.000000 -0.100000 -0.000000
vn -0.000000 -0.100000 -0.000000
vn -0.000000 -0.100000 -0.000000
vn -0.000000 -0.100000 -0.000000
vn -0.000000 -0.100000 -0.000000
vn -0.000000 -0.100000 -0.000000
vn -0.000000 -0.100000 -0.000000
vn -0.000000 -0.000000 0.100000
vn -0.000000 -0.000000 0.100000
vn -0.000000 -0.000000 0.100000
vn -0.000000 -0.000000 0.100000
vn 0.100000 -0.000000 0.000000
vn 0.100000 -0.000000 0.000000
vn 0.100000 -0.000000 0.000000
vn 0.100000 -0.000000 0.000000
vn 0.100000 -0.000000 0.000000
vn 0.100000 -0.000000 0.000000
vn 0.000000 0.000000 -0.100000
vn 0.000000 0.000000 -0.100000
vn 0.000000 0.000000 -0.100000
vn 0.000000 0.000000 -0.100000
vn 0.100000 -0.000000 0.000000
vn 0.100000 -0.000000 0.000000
vn 0.100000 -0.000000 0.000000
vn 0.100000 -0.000000 0.000000
vn 0.100000 -0.000000 0.000000
vn 0.100000 -0.000000 0.000000
vn 0.000000 0.100000 0.000000
vn 0.000000 0.100000 0.000000
vn 0.000000 0.100000 0.000000
vn 0.000000 0.100000 0.000000
vn 0.000000 0.100000 0.000000
vn 0.000000 0.100000 0.000000
vn 0.000000 0.100000 0.000000
vn 0.000000 0.100000 0.000000
vn 0.100000 -0.000000 0.000000
vn 0.100000 -0.000000 0.000000
vn 0.100000 -0.000000 0.000000
vn 0.100000 -0.000000 0.000000
vn 0.100000 -0.000000 0.000000
vn 0.100000 -0.000000 0.000000
vn 0.100000 -0.000000 0.000000
vn 0.100000 -0.000000 0.000000
vn -0.000000 -0.000000 0.100000
vn -0.000000 -0.000000 0.100000
vn -0.000000 -0.000000 0.100000
vn -0.000000 -0.000000 0.100000
vn -0.000000 -0.100000 -0.000000
vn -0.000000 -0.100000 -0.000000
vn -0.000000 -0.100000 -0.000000
vn -0.000000 -0.100000 -0.000000
vn -0.000000 -0.100000 -0.000000
vn -0.000000 -0.100000 -0.000000
vn -0.000000 -0.100000 -0.000000
vn -0.000000 -0.100000 -0.000000
vn -0.000000 -0.100000 -0.000000
vn -0.000000 -0.100000 -0.000000
vn -0.000000 -0.100000 -0.000000
vn -0.000000 -0.100000 -0.000000
vn -0.000000 -0.100000 -0.000000
vn -0.000000 -0.100000 -0.000000
vn -0.000000 -0.100000 -0.000000
vn -0.000000 -0.100000 -0.000000
vn 0.000000 0.100000 0.000000
vn 0.000000 0.100000 0.000000
vn 0.000000 0.100000 0.000000
vn 0.000000 0.100000 0.000000
vn 0.000000 0.100000 0.000000
vn 0.000000 0.100000 0.000000
vn 0.000000 0.100000 0.000000
vn 0.000000 0.100000 0.000000
vn -0.100000 0.000000 -0.000000
vn -0.100000 0.000000 -0.000000
vn -0.100000 0.000000 -0.000000
vn -0.100000 0.000000 -0.000000
vn 0.100000 -0.000000 0.000000
vn 0.100000 -0.000000 0.000000
vn 0.100000 -0.000000 0.000000
vn 0.100000 -0.000000 0.000000
vn 0.100000 -0.000000 0.000000
vn 0.100000 -0.000000 0.000000
vn 0.100000 -0.000000 0.000000
vn 0.100000 -0.000000 0.000000
vn -0.000000 -0.000000 0.100000
vn -0.000000 -0.000000 0.100000
vn -0.000000 -0.000000 0.100000
vn -0.000000 -0.000000 0.100000
vn -0.100000 0.000000 -0.000000
vn -0.100000 0.000000 -0.000000
vn -0.100000 0.000000 -0.000000
vn -0.100000 0.000000 -0.000000
vn 0.000000 0.000000 -0.100000
vn 0.000000 0.000000 -0.100000
vn 0.000000 0.000000 -0.100000
vn 0.000000 0.000000 -0.100000
vn 0.000000 0.000000 -0.100000
vn 0.000000 0.000000 -0.100000
vn 0.000000 0.000000 -0.100000
vn 0.000000 0.000000 -0.100000
vn 0.000000 0.000000 -0.100000
vn 0.000000 0.000000 -0.100000
vn 0.000000 0.000000 -0.100000
vn 0.000000 0.000000 -0.100000
vn -0.000000 -0.000000 0.100000
vn -0.000000 -0.000000 0.100000
vn -0.000000 -0.000000 0.100000
vn -0.000000 -0.000000 0.100000
vn -0.000000 -0.000000 0.100000
vn -0.000000 -0.000000 0.100000
vn -0.000000 -0.000000 0.100000
vn -0.000000 -0.000000 0.100000
vn -0.100000 0.000000 -0.000000
vn -0.100000 0.000000 -0.000000
vn -0.100000 0.000000 -0.000000
vn -0.100000 0.000000 -0.000000
vn -0.000000 -0.000000 0.100000
vn -0.000000 -0.000000 0.100000
vn -0.000000 -0.000000 0.100000
vn -0.000000 -0.000000 0.100000
vn -0.100000 0.000000 -0.000000
vn -0.100000 0.000000 -0.000000
vn -0.100000 0.000000 -0.000000
vn -0.100000 0.000000 -0.000000
vn 0.000000 0.100000 0.000000
vn 0.000000 0.100000 0.000000
vn 0.000000 0.100000 0.000000
vn 0.000000 0.100000 0.000000
vn 0.000000 0.000000 -0.100000
vn 0.000000 0.000000 -0.100000
vn 0.000000 0.000000 -0.100000
vn 0.000000 0.000000 -0.100000
vn 0.100000 -0.000000 0.000000
vn 0.100000 -0.000000 0.000000
vn 0.100000 -0.000000 0.000000
vn 0.100000 -0.000000 0.000000
vn -0.000000 -0.100000 -0.000000
vn -0.000000 -0.100000 -0.000000
vn -0.000000 -0.100000 -0.000000
vn -0.000000 -0.100000 -0.000000
f 17/49/49 18/50/50 20/51/51
f 20/51/51 18/50/50 19/52/52
f 21/53/53 22/54/54 24/55/55
f 24/55/55 22/54/54 23/56/56
f 25/57/57 17/58/58 26/59/59
f 26/59/59 17/58/58 20/60/60
f 27/61/61 21/62/62 28/63/63
f 28/63/63 21/62/62 24/64/64
f 18/65/65 17/66/66 31/67/67
f 31/67/67 17/66/66 30/68/68
f 30/68/68 17/66/66 29/69/69
f 29/69/69 17/66/66 25/70/70
f 26/71/71 32/72/72 25/73/73
f 25/73/73 32/72/72 29/74/74
f 22/75/75 21/76/76 35/77/77
f 35/77/77 21/76/76 34/78/78
f 34/78/78 21/76/76 33/79/79
f 33/79/79 21/76/76 27/80/80
f 31/81/81 36/82/82 18/83/83
f 18/83/83 36/82/82 37/84/84
f 18/83/83 37/84/84 27/85/85
f 27/85/85 37/84/84 33/86/86
f 27/85/85 28/87/87 18/83/83
f 18/83/83 28/87/87 19/88/88
f 38/89/89 26/90/90 23/91/91
f 23/91/91 26/90/90 28/92/92
f 23/91/91 28/92/92 24/93/93
f 38/89/89 32/94/94 26/90/90
f 20/95/95 19/96/96 26/90/90
f 26/90/90 19/96/96 28/92/92
f 22/97/97 35/98/98 23/99/99
f 23/99/99 35/98/98 38/100/100
f 34/101/101 39/102/102 35/103/103
f 35/103/103 39/102/102 42/104/104
f 35/103/103 42/104/104 45/105/105
f 45/105/105 42/104/104 44/106/106
f 44/106/106 42/104/104 43/107/107
f 39/102/102 40/108/108 42/104/104
f 42/104/104 40/108/108 41/109/109
f 46/110/110 48/111/111 45/105/105
f 45/105/105 48/111/111 29/112/112
f 45/105/105 29/112/112 35/103/103
f 35/103/103 29/112/112 38/113/113
f 38/113/113 29/112/112 32/114/114
f 46/110/110 47/115/115 48/111/111
f 48/111/111 30/116/116 29/112/112
f 50/117/117 51/118/118 49/119/119
f 49/119/119 51/118/118 52/120/120
f 54/121/121 55/122/122 53/123/123
f 53/123/123 55/122/122 56/124/124
f 50/125/125 42/126/126 51/127/127
f 51/127/127 42/126/126 41/128/128
f 54/129/129 48/130/130 55/131/131
f 55/131/131 48/130/130 47/132/132
f 39/133/133 49/134/134 40/135/135
f 40/135/135 49/134/134 52/136/136
f 51/137/137 41/138/138 52/139/139
f 52/139/139 41/138/138 40/140/140
f 45/141/141 53/142/142 46/143/143
f 46/143/143 53/142/142 56/144/144
f 55/145/145 47/146/146 56/147/147
f 56/147/147 47/146/146 46/148/148
f 48/149/149 54/150/150 30/151/151
f 30/151/151 54/150/150 31/152/152
f 31/152/152 54/150/150 36/153/153
f 36/153/153 54/150/150 53/154/154
f 36/153/153 53/154/154 44/155/155
f 44/155/155 53/154/154 45/156/156
f 42/157/157 50/158/158 43/159/159
f 43/159/159 50/158/158 37/160/160
f 37/160/160 50/158/158 49/161/161
f 37/160/160 49/161/161 33/162/162
f 33/162/162 49/161/161 34/163/163
f 34/163/163 49/161/161 39/164/164
f 43/165/165 37/166/166 44/167/167
f 44/167/167 37/166/166 36/168/168
f 57/169/169 58/170/170 60/171/171
f 60/171/171 58/170/170 59/172/172
f 61/173/173 57/174/174 62/175/175
f 62/175/175 57/174/174 60/176/176
f 59/177/177 63/178/178 60/179/179
f 60/179/179 63/178/178 62/180/180
f 64/181/181 61/182/182 63/183/183
f 63/183/183 61/182/182 62/184/184
f 58/185/185 64/186/186 59/187/187
f 59/187/187 64/186/186 63/188/188
f 57/189/189 61/190/190 58/191/191
f 58/191/191 61/190/190 64/192/192
g Body4

v 88.640007 93.082003 -102.263674
v 89.859851 106.879059 -96.505790
v 84.442227 92.813675 -61.654518
v 83.222384 79.016619 -67.412402
v 65.880903 110.024876 -98.963715
v 60.463280 95.959491 -64.112443
v 64.661060 96.227819 -104.721598
v 59.243436 82.162435 -69.870326
vt -1.023602 0.396309 0.000000
vt -4.545806 -1.022157 0.000000
vt -0.463254 -0.995097 0.000000
vt -3.985458 -2.413563 0.000000
vt 4.598550 1.465450 0.000000
vt 0.801450 1.465450 0.000000
vt 4.598550 -0.965450 0.000000
vt 0.801450 -0.965450 0.000000
vt -1.465450 -0.750000 0.000000
vt 0.965450 -0.750000 0.000000
vt -1.465450 0.750000 0.000000
vt 0.965450 0.750000 0.000000
vt 1.086692 0.154671 0.000000
vt 0.226327 -1.074057 0.000000
vt 4.197094 -2.023256 0.000000
vt 3.336729 -3.251984 0.000000
vt -0.801450 1.465450 0.000000
vt -4.598550 1.465450 0.000000
vt -0.801450 -0.965450 0.000000
vt -4.598550 -0.965450 0.000000
vt 1.465450 0.750000 0.000000
vt -0.965450 0.750000 0.000000
vt 1.465450 -0.750000 0.000000
vt -0.965450 -0.750000 0.000000
vn 0.098642 -0.012941 0.010111
vn 0.098642 -0.012941 0.010111
vn 0.098642 -0.012941 0.010111
vn 0.098642 -0.012941 0.010111
vn 0.008132 0.091980 0.038386
vn 0.008132 0.091980 0.038386
vn 0.008132 0.091980 0.038386
vn 0.008132 0.091980 0.038386
vn 0.014268 0.037042 -0.091784
vn 0.014268 0.037042 -0.091784
vn 0.014268 0.037042 -0.091784
vn 0.014268 0.037042 -0.091784
vn -0.098642 0.012941 -0.010111
vn -0.098642 0.012941 -0.010111
vn -0.098642 0.012941 -0.010111
vn -0.098642 0.012941 -0.010111
vn -0.008132 -0.091980 -0.038386
vn -0.008132 -0.091980 -0.038386
vn -0.008132 -0.091980 -0.038386
vn -0.008132 -0.091980 -0.038386
vn -0.014268 -0.037042 0.091784
vn -0.014268 -0.037042 0.091784
vn -0.014268 -0.037042 0.091784
vn -0.014268 -0.037042 0.091784
f 66/193/193 67/194/194 65/195/195
f 65/195/195 67/194/194 68/196/196
f 67/197/197 66/198/198 70/199/199
f 70/199/199 66/198/198 69/200/200
f 65/201/201 71/202/202 66/203/203
f 66/203/203 71/202/202 69/204/204
f 69/205/205 71/206/206 70/207/207
f 70/207/207 71/206/206 72/208/208
f 65/209/209 68/210/210 71/211/211
f 71/211/211 68/210/210 72/212/212
f 67/213/213 70/214/214 68/215/215
f 68/215/215 70/214/214 72/216/216
g Body5

v 100.659281 77.287281 -136.634452
v 100.659281 65.000000 -145.238099
v 95.600118 58.777034 -136.350782
v 95.600118 71.064314 -127.747135
v 136.285334 67.758627 -123.026124
v 136.285334 55.471346 -131.629771
v 131.226171 61.535660 -114.138807
v 131.226171 49.248380 -122.742454
vt -0.598550 -0.750000 0.000000
vt 0.598550 -0.750000 0.000000
vt -0.598550 0.750000 0.000000
vt 0.598550 0.750000 0.000000
vt -0.750000 2.534550 0.000000
vt 0.750000 2.534550 0.000000
vt -0.750000 6.465450 0.000000
vt 0.750000 6.465450 0.000000
vt -0.598550 2.534550 0.000000
vt 0.598550 2.534550 0.000000
vt -0.598550 6.465450 0.000000
vt 0.598550 6.465450 0.000000
vt -0.598550 -0.750000 0.000000
vt 0.598550 -0.750000 0.000000
vt -0.598550 0.750000 0.000000
vt 0.598550 0.750000 0.000000
vt -0.598550 2.534550 0.000000
vt 0.598550 2.534550 0.000000
vt -0.598550 6.465450 0.000000
vt 0.598550 6.465450 0.000000
vt -0.750000 2.534550 0.000000
vt 0.750000 2.534550 0.000000
vt -0.750000 6.465450 0.000000
vt 0.750000 6.465450 0.000000
vn -0.090631 0.024240 -0.034619
vn -0.090631 0.024240 -0.034619
vn -0.090631 0.024240 -0.034619
vn -0.090631 0.024240 -0.034619
vn 0.042262 0.051984 -0.074240
vn 0.042262 0.051984 -0.074240
vn 0.042262 0.051984 -0.074240
vn 0.042262 0.051984 -0.074240
vn -0.000000 0.081915 0.057358
vn -0.000000 0.081915 0.057358
vn -0.000000 0.081915 0.057358
vn -0.000000 0.081915 0.057358
vn 0.090631 -0.024240 0.034619
vn 0.090631 -0.024240 0.034619
vn 0.090631 -0.024240 0.034619
vn 0.090631 -0.024240 0.034619
vn 0.000000 -0.081915 -0.057358
vn 0.000000 -0.081915 -0.057358
vn 0.000000 -0.081915 -0.057358
vn 0.000000 -0.081915 -0.057358
vn -0.042262 -0.051984 0.074240
vn -0.042262 -0.051984 0.074240
vn -0.042262 -0.051984 0.074240
vn -0.042262 -0.051984 0.074240
f 74/217/217 75/218/218 73/219/219
f 73/219/219 75/218/218 76/220/220
f 74/221/221 73/222/222 78/223/223
f 78/223/223 73/222/222 77/224/224
f 73/225/225 76/226/226 77/227/227
f 77/227/227 76/226/226 79/228/228
f 80/229/229 78/230/230 79/231/231
f 79/231/231 78/230/230 77/232/232
f 75/233/233 74/234/234 80/235/235
f 80/235/235 74/234/234 78/236/236
f 76/237/237 75/238/238 79/239/239
f 79/239/239 75/238/238 80/240/240
g Body6

v 89.968281 115.000000 -143.267099
v 89.968281 100.000000 -143.267099
v 89.968281 100.000000 -155.238099
v 89.968281 115.000000 -155.238099
v 50.659281 115.000000 -155.238099
v 50.659281 115.000000 -143.267099
v 50.659281 100.000000 -155.238099
v 50.659281 100.000000 -143.267099
vt -0.598550 -0.750000 0.000000
vt 0.598550 -0.750000 0.000000
vt -0.598550 0.750000 0.000000
vt 0.598550 0.750000 0.000000
vt 0.598550 1.465450 0.000000
vt -0.598550 1.465450 0.000000
vt 0.598550 -2.465450 0.000000
vt -0.598550 -2.465450 0.000000
vt 0.750000 1.465450 0.000000
vt -0.750000 1.465450 0.000000
vt 0.750000 -2.465450 0.000000
vt -0.750000 -2.465450 0.000000
vt 0.598550 1.465450 0.000000
vt -0.598550 1.465450 0.000000
vt 0.598550 -2.465450 0.000000
vt -0.598550 -2.465450 0.000000
vt -0.750000 -0.598550 0.000000
vt 0.750000 -0.598550 0.000000
vt -0.750000 0.598550 0.000000
vt 0.750000 0.598550 0.000000
vt 0.750000 1.465450 0.000000
vt -0.750000 1.465450 0.000000
vt 0.750000 -2.465450 0.000000
vt -0.750000 -2.465450 0.000000
vn 0.100000 -0.000000 0.000000
vn 0.100000 -0.000000 0.000000
vn 0.100000 -0.000000 0.000000
vn 0.100000 -0.000000 0.000000
vn 0.000000 0.100000 0.000000
vn 0.000000 0.100000 0.000000
vn 0.000000 0.100000 0.000000
vn 0.000000 0.100000 0.000000
vn 0.000000 0.000000 -0.100000
vn 0.000000 0.000000 -0.100000
vn 0.000000 0.000000 -0.100000
vn 0.000000 0.000000 -0.100000
vn -0.000000 -0.100000 0.000000
vn -0.000000 -0.100000 0.000000
vn -0.000000 -0.100000 0.000000
vn -0.000000 -0.100000 0.000000
vn -0.100000 0.000000 -0.000000
vn -0.100000 0.000000 -0.000000
vn -0.100000 0.000000 -0.000000
vn -0.100000 0.000000 -0.000000
vn 0.000000 0.000000 0.100000
vn 0.000000 0.000000 0.100000
vn 0.000000 0.000000 0.100000
vn 0.000000 0.000000 0.100000
f 82/241/241 83/242/242 81/243/243
f 81/243/243 83/242/242 84/244/244
f 81/245/245 84/246/246 86/247/247
f 86/247/247 84/246/246 85/248/248
f 84/249/249 83/250/250 85/251/251
f 85/251/251 83/250/250 87/252/252
f 83/253/253 82/254/254 87/255/255
f 87/255/255 82/254/254 88/256/256
f 85/257/257 87/258/258 86/259/259
f 86/259/259 87/258/258 88/260/260
f 82/261/261 81/262/262 88/263/263
f 88/263/263 81/262/262 86/264/264
g Body7

v 62.630281 150.000000 -159.547099
v 62.630281 135.000000 -159.547099
v 50.659281 135.000000 -159.547099
v 50.659281 150.000000 -159.547099
v 50.659281 150.000000 -120.238099
v 62.630281 150.000000 -120.238099
v 50.659281 135.000000 -120.238099
v 62.630281 135.000000 -120.238099
vt -0.598550 -0.750000 0.000000
vt 0.598550 -0.750000 0.000000
vt -0.598550 0.750000 0.000000
vt 0.598550 0.750000 0.000000
vt 0.598550 1.465450 0.000000
vt -0.598550 1.465450 0.000000
vt 0.598550 -2.465450 0.000000
vt -0.598550 -2.465450 0.000000
vt 0.750000 1.465450 0.000000
vt -0.750000 1.465450 0.000000
vt 0.750000 -2.465450 0.000000
vt -0.750000 -2.465450 0.000000
vt 0.598550 1.465450 0.000000
vt -0.598550 1.465450 0.000000
vt 0.598550 -2.465450 0.000000
vt -0.598550 -2.465450 0.000000
vt -0.750000 -0.598550 0.000000
vt 0.750000 -0.598550 0.000000
vt -0.750000 0.598550 0.000000
vt 0.750000 0.598550 0.000000
vt 0.750000 1.465450 0.000000
vt -0.750000 1.465450 0.000000
vt 0.750000 -2.465450 0.000000
vt -0.750000 -2.465450 0.000000
vn -0.000000 0.000000 -0.100000
vn -0.000000 0.000000 -0.100000
vn -0.000000 0.000000 -0.100000
vn -0.000000 0.000000 -0.100000
vn -0.000000 0.100000 0.000000
vn -0.000000 0.100000 0.000000
vn -0.000000 0.100000 0.000000
vn -0.000000 0.100000 0.000000
vn -0.100000 -0.000000 0.000000
vn -0.100000 -0.000000 0.000000
vn -0.100000 -0.000000 0.000000
vn -0.100000 -0.000000 0.000000
vn 0.000000 -0.100000 -0.000000
vn 0.000000 -0.100000 -0.000000
vn 0.000000 -0.100000 -0.000000
vn 0.000000 -0.100000 -0.000000
vn 0.000000 -0.000000 0.100000
vn 0.000000 -0.000000 0.100000
vn 0.000000 -0.000000 0.100000
vn 0.000000 -0.000000 0.100000
vn 0.100000 0.000000 -0.000000
vn 0.100000 0.000000 -0.000000
vn 0.100000 0.000000 -0.000000
vn 0.100000 0.000000 -0.000000
f 90/265/265 91/266/266 89/267/267
f 89/267/267 91/266/266 92/268/268
f 89/269/269 92/270/270 94/271/271
f 94/271/271 92/270/270 93/272/272
f 92/273/273 91/274/274 93/275/275
f 93/275/275 91/274/274 95/276/276
f 91/277/277 90/278/278 95/279/279
f 95/279/279 90/278/278 96/280/280
f 93/281/281 95/282/282 94/283/283
f 94/283/283 95/282/282 96/284/284
f 90/285/285 89/286/286 96/287/287
f 96/287/287 89/286/286 94/288/288
g Body8

v 81.508692 150.000000 -64.606262
v 81.508692 135.000000 -64.606262
v 70.659281 135.000000 -59.547099
v 70.659281 150.000000 -59.547099
v 87.271982 150.000000 -23.921046
v 98.121393 150.000000 -28.980209
v 87.271982 135.000000 -23.921046
v 98.121393 135.000000 -28.980209
vt -0.598550 -0.750000 0.000000
vt 0.598550 -0.750000 0.000000
vt -0.598550 0.750000 0.000000
vt 0.598550 0.750000 0.000000
vt 0.598550 1.465450 0.000000
vt -0.598550 1.465450 0.000000
vt 0.598550 -2.465450 0.000000
vt -0.598550 -2.465450 0.000000
vt 0.750000 1.465450 0.000000
vt -0.750000 1.465450 0.000000
vt 0.750000 -2.465450 0.000000
vt -0.750000 -2.465450 0.000000
vt 0.598550 1.465450 0.000000
vt -0.598550 1.465450 0.000000
vt 0.598550 -2.465450 0.000000
vt -0.598550 -2.465450 0.000000
vt -0.750000 -0.598550 0.000000
vt 0.750000 -0.598550 0.000000
vt -0.750000 0.598550 0.000000
vt 0.750000 0.598550 0.000000
vt 0.750000 1.465450 0.000000
vt -0.750000 1.465450 0.000000
vt 0.750000 -2.465450 0.000000
vt -0.750000 -2.465450 0.000000
vn -0.042262 0.000000 -0.090631
vn -0.042262 0.000000 -0.090631
vn -0.042262 0.000000 -0.090631
vn -0.042262 0.000000 -0.090631
vn -0.000000 0.100000 0.000000
vn -0.000000 0.100000 0.000000
vn -0.000000 0.100000 0.000000
vn -0.000000 0.100000 0.000000
vn -0.090631 -0.000000 0.042262
vn -0.090631 -0.000000 0.042262
vn -0.090631 -0.000000 0.042262
vn -0.090631 -0.000000 0.042262
vn 0.000000 -0.100000 -0.000000
vn 0.000000 -0.100000 -0.000000
vn 0.000000 -0.100000 -0.000000
vn 0.000000 -0.100000 -0.000000
vn 0.042262 -0.000000 0.090631
vn 0.042262 -0.000000 0.090631
vn 0.042262 -0.000000 0.090631
vn 0.042262 -0.000000 0.090631
vn 0.090631 0.000000 -0.042262
vn 0.090631 0.000000 -0.042262
vn 0.090631 0.000000 -0.042262
vn 0.090631 0.000000 -0.042262
f 98/289/289 99/290/290 97/291/291
f 97/291/291 99/290/290 100/292/292
f 97/293/293 100/294/294 102/295/295
f 102/295/295 100/294/294 101/296/296
f 100/297/297 99/298/298 101/299/299
f 101/299/299 99/298/298 103/300/300
f 99/301/301 98/302/302 103/303/303
f 103/303/303 98/302/302 104/304/304
f 101/305/305 103/306/306 102/307/307
f 102/307/307 103/306/306 104/308/308
f 98/309/309 97/310/310 104/311/311
f 104/311/311 97/310/310 102/312/312
g Body9

v 162.630281 130.000000 -159.547099
v 162.630281 115.000000 -159.547099
v 150.659281 115.000000 -159.547099
v 150.659281 130.000000 -159.547099
v 150.659281 130.000000 -120.238099
v 162.630281 130.000000 -120.238099
v 150.659281 115.000000 -120.238099
v 162.630281 115.000000 -120.238099
vt -0.598550 -0.750000 0.000000
vt 0.598550 -0.750000 0.000000
vt -0.598550 0.750000 0.000000
vt 0.598550 0.750000 0.000000
vt 0.598550 1.465450 0.000000
vt -0.598550 1.465450 0.000000
vt 0.598550 -2.465450 0.000000
vt -0.598550 -2.465450 0.000000
vt 0.750000 1.465450 0.000000
vt -0.750000 1.465450 0.000000
vt 0.750000 -2.465450 0.000000
vt -0.750000 -2.465450 0.000000
vt 0.598550 1.465450 0.000000
vt -0.598550 1.465450 0.000000
vt 0.598550 -2.465450 0.000000
vt -0.598550 -2.465450 0.000000
vt -0.750000 -0.598550 0.000000
vt 0.750000 -0.598550 0.000000
vt -0.750000 0.598550 0.000000
vt 0.750000 0.598550 0.000000
vt 0.750000 1.465450 0.000000
vt -0.750000 1.465450 0.000000
vt 0.750000 -2.465450 0.000000
vt -0.750000 -2.465450 0.000000
vn -0.000000 0.000000 -0.100000
vn -0.000000 0.000000 -0.100000
vn -0.000000 0.000000 -0.100000
vn -0.000000 0.000000 -0.100000
vn -0.000000 0.100000 0.000000
vn -0.000000 0.100000 0.000000
vn -0.000000 0.100000 0.000000
vn -0.000000 0.100000 0.000000
vn -0.100000 -0.000000 0.000000
vn -0.100000 -0.000000 0.000000
vn -0.100000 -0.000000 0.000000
vn -0.100000 -0.000000 0.000000
vn 0.000000 -0.100000 -0.000000
vn 0.000000 -0.100000 -0.000000
vn 0.000000 -0.100000 -0.000000
vn 0.000000 -0.100000 -0.000000
vn 0.000000 -0.000000 0.100000
vn 0.000000 -0.000000 0.100000
vn 0.000000 -0.000000 0.100000
vn 0.000000 -0.000000 0.100000
vn 0.100000 0.000000 -0.000000
vn 0.100000 0.000000 -0.000000
vn 0.100000 0.000000 -0.000000
vn 0.100000 0.000000 -0.000000
f 106/313/313 107/314/314 105/315/315
f 105/315/315 107/314/314 108/316/316
f 105/317/317 108/318/318 110/319/319
f 110/319/319 108/318/318 109/320/320
f 108/321/321 107/322/322 109/323/323
f 109/323/323 107/322/322 111/324/324
f 107/325/325 106/326/326 111/327/327
f 111/327/327 106/326/326 112/328/328
f 109/329/329 111/330/330 110/331/331
f 110/331/331 111/330/330 112/332/332
f 106/333/333 105/334/334 112/335/335
f 112/335/335 105/334/334 110/336/336
# 112 vertices
# 336 texture params
# 336 normals
# 184 facets

# 9 groups
