# WaveFront *.obj file (generated by Autodesk ATF)

mtllib env2.mtl

g Body2

v 139.968281 45.000000 -95.238099
v 50.659281 45.000000 -95.238099
v 50.659281 59.488887 -99.120384
v 139.968281 59.488887 -99.120384
v 139.968281 67.763591 -68.238770
v 139.968281 53.274704 -64.356484
v 50.659281 67.763591 -68.238770
v 50.659281 53.274704 -64.356484
vt -6.465450 -0.750000 0.000000
vt 2.465450 -0.750000 0.000000
vt -6.465450 0.750000 0.000000
vt 2.465450 0.750000 0.000000
vt -0.598550 -0.750000 0.000000
vt 2.598550 -0.750000 0.000000
vt -0.598550 0.750000 0.000000
vt 2.598550 0.750000 0.000000
vt 0.598550 6.465450 0.000000
vt -2.598550 6.465450 0.000000
vt 0.598550 -2.465450 0.000000
vt -2.598550 -2.465450 0.000000
vt -0.598550 -2.465450 0.000000
vt 2.598550 -2.465450 0.000000
vt -0.598550 6.465450 0.000000
vt 2.598550 6.465450 0.000000
vt 0.750000 0.598550 0.000000
vt -0.750000 0.598550 0.000000
vt 0.750000 -2.598550 0.000000
vt -0.750000 -2.598550 0.000000
vt -0.750000 -2.465450 0.000000
vt 0.750000 -2.465450 0.000000
vt -0.750000 6.465450 0.000000
vt 0.750000 6.465450 0.000000
vn -0.000000 -0.025882 -0.096593
vn -0.000000 -0.025882 -0.096593
vn -0.000000 -0.025882 -0.096593
vn -0.000000 -0.025882 -0.096593
vn 0.100000 -0.000000 0.000000
vn 0.100000 -0.000000 0.000000
vn 0.100000 -0.000000 0.000000
vn 0.100000 -0.000000 0.000000
vn 0.000000 0.096593 -0.025882
vn 0.000000 0.096593 -0.025882
vn 0.000000 0.096593 -0.025882
vn 0.000000 0.096593 -0.025882
vn -0.000000 -0.096593 0.025882
vn -0.000000 -0.096593 0.025882
vn -0.000000 -0.096593 0.025882
vn -0.000000 -0.096593 0.025882
vn -0.100000 0.000000 -0.000000
vn -0.100000 0.000000 -0.000000
vn -0.100000 0.000000 -0.000000
vn -0.100000 0.000000 -0.000000
vn 0.000000 0.025882 0.096593
vn 0.000000 0.025882 0.096593
vn 0.000000 0.025882 0.096593
vn 0.000000 0.025882 0.096593
usemtl Steel_-_Satin
f 1/1/1 2/2/2 4/3/3
f 4/3/3 2/2/2 3/4/4
f 6/5/5 1/6/6 5/7/7
f 5/7/7 1/6/6 4/8/8
f 5/9/9 4/10/10 7/11/11
f 7/11/11 4/10/10 3/12/12
f 8/13/13 2/14/14 6/15/15
f 6/15/15 2/14/14 1/16/16
f 8/17/17 7/18/18 2/19/19
f 2/19/19 7/18/18 3/20/20
f 7/21/21 8/22/22 5/23/23
f 5/23/23 8/22/22 6/24/24
g Body3

v 100.659281 77.287281 -136.634452
v 100.659281 65.000000 -145.238099
v 95.600118 58.777034 -136.350782
v 95.600118 71.064314 -127.747135
v 136.285334 67.758627 -123.026124
v 136.285334 55.471346 -131.629771
v 131.226171 61.535660 -114.138807
v 131.226171 49.248380 -122.742454
vt -0.598550 -0.750000 0.000000
vt 0.598550 -0.750000 0.000000
vt -0.598550 0.750000 0.000000
vt 0.598550 0.750000 0.000000
vt -0.750000 2.534550 0.000000
vt 0.750000 2.534550 0.000000
vt -0.750000 6.465450 0.000000
vt 0.750000 6.465450 0.000000
vt -0.598550 2.534550 0.000000
vt 0.598550 2.534550 0.000000
vt -0.598550 6.465450 0.000000
vt 0.598550 6.465450 0.000000
vt -0.598550 -0.750000 0.000000
vt 0.598550 -0.750000 0.000000
vt -0.598550 0.750000 0.000000
vt 0.598550 0.750000 0.000000
vt -0.598550 2.534550 0.000000
vt 0.598550 2.534550 0.000000
vt -0.598550 6.465450 0.000000
vt 0.598550 6.465450 0.000000
vt -0.750000 2.534550 0.000000
vt 0.750000 2.534550 0.000000
vt -0.750000 6.465450 0.000000
vt 0.750000 6.465450 0.000000
vn -0.090631 0.024240 -0.034619
vn -0.090631 0.024240 -0.034619
vn -0.090631 0.024240 -0.034619
vn -0.090631 0.024240 -0.034619
vn 0.042262 0.051984 -0.074240
vn 0.042262 0.051984 -0.074240
vn 0.042262 0.051984 -0.074240
vn 0.042262 0.051984 -0.074240
vn 0.000000 0.081915 0.057358
vn 0.000000 0.081915 0.057358
vn 0.000000 0.081915 0.057358
vn 0.000000 0.081915 0.057358
vn 0.090631 -0.024240 0.034619
vn 0.090631 -0.024240 0.034619
vn 0.090631 -0.024240 0.034619
vn 0.090631 -0.024240 0.034619
vn -0.000000 -0.081915 -0.057358
vn -0.000000 -0.081915 -0.057358
vn -0.000000 -0.081915 -0.057358
vn -0.000000 -0.081915 -0.057358
vn -0.042262 -0.051984 0.074240
vn -0.042262 -0.051984 0.074240
vn -0.042262 -0.051984 0.074240
vn -0.042262 -0.051984 0.074240
f 10/25/25 11/26/26 9/27/27
f 9/27/27 11/26/26 12/28/28
f 10/29/29 9/30/30 14/31/31
f 14/31/31 9/30/30 13/32/32
f 9/33/33 12/34/34 13/35/35
f 13/35/35 12/34/34 15/36/36
f 16/37/37 14/38/38 15/39/39
f 15/39/39 14/38/38 13/40/40
f 11/41/41 10/42/42 16/43/43
f 16/43/43 10/42/42 14/44/44
f 12/45/45 11/46/46 15/47/47
f 15/47/47 11/46/46 16/48/48
g Body4

v 50.659281 87.477940 -49.062301
v 50.659281 75.190659 -57.665948
v 139.968281 75.190659 -57.665948
v 139.968281 87.477940 -49.062301
v 139.968281 105.000000 -100.238099
v 139.968281 117.287281 -91.634452
v 50.659281 117.287281 -91.634452
v 50.659281 105.000000 -100.238099
vt -2.465450 -0.750000 0.000000
vt 6.465450 -0.750000 0.000000
vt -2.465450 0.750000 0.000000
vt 6.465450 0.750000 0.000000
vt -4.598550 -0.750000 0.000000
vt 0.598550 -0.750000 0.000000
vt -4.598550 0.750000 0.000000
vt 0.598550 0.750000 0.000000
vt 4.598550 6.465450 0.000000
vt -0.598550 6.465450 0.000000
vt 4.598550 -2.465450 0.000000
vt -0.598550 -2.465450 0.000000
vt -4.598550 -2.465450 0.000000
vt 0.598550 -2.465450 0.000000
vt -4.598550 6.465450 0.000000
vt 0.598550 6.465450 0.000000
vt -0.750000 -0.598550 0.000000
vt 0.750000 -0.598550 0.000000
vt -0.750000 4.598550 0.000000
vt 0.750000 4.598550 0.000000
vt -0.750000 -2.465450 0.000000
vt 0.750000 -2.465450 0.000000
vt -0.750000 6.465450 0.000000
vt 0.750000 6.465450 0.000000
vn -0.000000 -0.057358 0.081915
vn -0.000000 -0.057358 0.081915
vn -0.000000 -0.057358 0.081915
vn -0.000000 -0.057358 0.081915
vn 0.100000 -0.000000 -0.000000
vn 0.100000 -0.000000 -0.000000
vn 0.100000 -0.000000 -0.000000
vn 0.100000 -0.000000 -0.000000
vn 0.000000 0.081915 0.057358
vn 0.000000 0.081915 0.057358
vn 0.000000 0.081915 0.057358
vn 0.000000 0.081915 0.057358
vn -0.000000 -0.081915 -0.057358
vn -0.000000 -0.081915 -0.057358
vn -0.000000 -0.081915 -0.057358
vn -0.000000 -0.081915 -0.057358
vn -0.100000 0.000000 0.000000
vn -0.100000 0.000000 0.000000
vn -0.100000 0.000000 0.000000
vn -0.100000 0.000000 0.000000
vn 0.000000 0.057358 -0.081915
vn 0.000000 0.057358 -0.081915
vn 0.000000 0.057358 -0.081915
vn 0.000000 0.057358 -0.081915
f 18/49/49 19/50/50 17/51/51
f 17/51/51 19/50/50 20/52/52
f 19/53/53 21/54/54 20/55/55
f 20/55/55 21/54/54 22/56/56
f 20/57/57 22/58/58 17/59/59
f 17/59/59 22/58/58 23/60/60
f 18/61/61 24/62/62 19/63/63
f 19/63/63 24/62/62 21/64/64
f 23/65/65 24/66/66 17/67/67
f 17/67/67 24/66/66 18/68/68
f 24/69/69 23/70/70 21/71/71
f 21/71/71 23/70/70 22/72/72
g Body5

v 89.968281 115.000000 -143.267099
v 89.968281 100.000000 -143.267099
v 89.968281 100.000000 -155.238099
v 89.968281 115.000000 -155.238099
v 50.659281 115.000000 -155.238099
v 50.659281 115.000000 -143.267099
v 50.659281 100.000000 -155.238099
v 50.659281 100.000000 -143.267099
vt -0.598550 -0.750000 0.000000
vt 0.598550 -0.750000 0.000000
vt -0.598550 0.750000 0.000000
vt 0.598550 0.750000 0.000000
vt 0.598550 1.465450 0.000000
vt -0.598550 1.465450 0.000000
vt 0.598550 -2.465450 0.000000
vt -0.598550 -2.465450 0.000000
vt 0.750000 1.465450 0.000000
vt -0.750000 1.465450 0.000000
vt 0.750000 -2.465450 0.000000
vt -0.750000 -2.465450 0.000000
vt 0.598550 1.465450 0.000000
vt -0.598550 1.465450 0.000000
vt 0.598550 -2.465450 0.000000
vt -0.598550 -2.465450 0.000000
vt -0.750000 -0.598550 0.000000
vt 0.750000 -0.598550 0.000000
vt -0.750000 0.598550 0.000000
vt 0.750000 0.598550 0.000000
vt 0.750000 1.465450 0.000000
vt -0.750000 1.465450 0.000000
vt 0.750000 -2.465450 0.000000
vt -0.750000 -2.465450 0.000000
vn 0.100000 -0.000000 0.000000
vn 0.100000 -0.000000 0.000000
vn 0.100000 -0.000000 0.000000
vn 0.100000 -0.000000 0.000000
vn 0.000000 0.100000 0.000000
vn 0.000000 0.100000 0.000000
vn 0.000000 0.100000 0.000000
vn 0.000000 0.100000 0.000000
vn 0.000000 0.000000 -0.100000
vn 0.000000 0.000000 -0.100000
vn 0.000000 0.000000 -0.100000
vn 0.000000 0.000000 -0.100000
vn -0.000000 -0.100000 0.000000
vn -0.000000 -0.100000 0.000000
vn -0.000000 -0.100000 0.000000
vn -0.000000 -0.100000 0.000000
vn -0.100000 0.000000 -0.000000
vn -0.100000 0.000000 -0.000000
vn -0.100000 0.000000 -0.000000
vn -0.100000 0.000000 -0.000000
vn 0.000000 0.000000 0.100000
vn 0.000000 0.000000 0.100000
vn 0.000000 0.000000 0.100000
vn 0.000000 0.000000 0.100000
f 26/73/73 27/74/74 25/75/75
f 25/75/75 27/74/74 28/76/76
f 25/77/77 28/78/78 30/79/79
f 30/79/79 28/78/78 29/80/80
f 28/81/81 27/82/82 29/83/83
f 29/83/83 27/82/82 31/84/84
f 27/85/85 26/86/86 31/87/87
f 31/87/87 26/86/86 32/88/88
f 29/89/89 31/90/90 30/91/91
f 30/91/91 31/90/90 32/92/92
f 26/93/93 25/94/94 32/95/95
f 32/95/95 25/94/94 30/96/96
# 32 vertices
# 96 texture params
# 96 normals
# 48 facets

# 4 groups
