# WaveFront *.obj file (generated by Autodesk ATF)

mtllib env3.mtl

g wall (1)

v 200.120461 155.090254 -199.139367
v 200.120461 156.090254 -199.139367
v 200.241461 156.090254 -199.139367
v 200.241461 155.090254 -199.139367
v 200.120461 155.090254 19.102633
v 200.120461 155.090254 9.981633
v 200.241461 155.090254 9.981633
v 200.241461 155.090254 19.102633
v 200.120461 155.090254 -190.018367
v 200.241461 155.090254 -190.018367
v 200.120461 156.090254 19.102633
v 200.241461 156.090254 19.102633
v 200.120461 16.090254 -190.018367
v 200.120461 16.090254 -200.139367
v 200.120461 156.090254 -200.139367
v 200.241461 16.090254 -190.018367
v 200.120461 156.090254 20.102633
v 200.120461 16.090254 20.102633
v 200.120461 16.090254 9.981633
v 0.120461 156.090254 -200.139367
v 0.120461 156.090254 20.102633
v 200.241461 16.090254 9.981633
v 199.659618 16.090254 20.102633
v 199.659618 16.090254 20.237416
v 0.120618 16.090254 20.237416
v 0.120618 16.090254 20.102633
v 0.120461 16.090254 20.102633
v 0.120461 16.090254 -200.139367
v 0.120618 16.090254 -200.139367
v 0.120618 16.090254 -200.219584
v 199.659618 16.090254 -200.219584
v 199.659618 16.090254 -200.139367
v 199.659618 26.090254 20.102633
v 0.120618 26.090254 20.102633
v 0.120618 26.090254 20.237416
v 199.659618 26.090254 20.237416
v 0.120618 26.090254 -200.139367
v 199.659618 26.090254 -200.139367
v 199.659618 26.090254 -200.219584
v 0.120618 26.090254 -200.219584
v 199.241461 155.090254 -199.139367
v 1.120461 155.090254 -199.139367
v 1.120461 17.090254 -199.139367
v 199.241461 17.090254 -199.139367
v 199.241461 155.090254 19.102633
v 199.241461 17.090254 19.102633
v 1.120461 17.090254 19.102633
v 1.120461 155.090254 19.102633
vt 0.000000 19.900000 0.000000
vt 0.100000 19.900000 0.000000
vt 0.000000 19.912100 0.000000
vt 0.100000 19.912100 0.000000
vt 0.000000 19.900000 0.000000
vt 0.912100 19.900000 0.000000
vt 0.000000 19.912100 0.000000
vt 0.912100 19.912100 0.000000
vt 20.912100 19.900000 0.000000
vt 21.824200 19.900000 0.000000
vt 20.912100 19.912100 0.000000
vt 21.824200 19.912100 0.000000
vt -0.000000 19.900000 0.000000
vt 0.100000 19.900000 0.000000
vt -0.000000 19.912100 0.000000
vt 0.100000 19.912100 0.000000
vt -7.000000 0.406050 0.000000
vt -6.900000 0.406050 0.000000
vt -7.000000 0.506050 0.000000
vt 7.000000 0.506050 0.000000
vt 7.000000 -0.506050 0.000000
vt -6.900000 -0.506050 0.000000
vt 6.900000 0.506050 0.000000
vt -7.000000 0.506050 0.000000
vt 6.900000 0.493950 0.000000
vt -7.000000 0.493950 0.000000
vt 6.900000 -0.506050 0.000000
vt 6.900000 0.406050 0.000000
vt -7.000000 -0.506050 0.000000
vt -7.000000 0.506050 0.000000
vt 7.000000 0.506050 0.000000
vt 7.000000 0.406050 0.000000
vt 0.493950 11.012100 0.000000
vt -19.506050 11.012100 0.000000
vt 0.493950 10.912100 0.000000
vt -19.506050 -11.012100 0.000000
vt 0.493950 -10.912100 0.000000
vt 0.493950 -11.012100 0.000000
vt 0.506050 -10.912100 0.000000
vt 0.506050 10.912100 0.000000
vt 7.000000 -10.000000 0.000000
vt -6.900000 10.000000 0.000000
vt -6.900000 -10.000000 0.000000
vt -7.000000 -10.912100 0.000000
vt -6.900000 -10.912100 0.000000
vt 7.000000 10.000000 0.000000
vt -6.900000 10.912100 0.000000
vt -7.000000 10.912100 0.000000
vt -6.900000 0.493950 0.000000
vt 7.000000 0.493950 0.000000
vt -6.900000 0.506050 0.000000
vt 7.000000 0.506050 0.000000
vt -0.506050 10.000000 0.000000
vt -0.506050 9.953916 0.000000
vt 0.506050 10.000000 0.000000
vt -0.506050 -9.999984 0.000000
vt 21.518150 -9.999984 0.000000
vt 21.518150 -10.000000 0.000000
vt -0.506050 -10.000000 0.000000
vt -0.519528 9.953916 0.000000
vt -0.519528 -9.999984 0.000000
vt 21.526172 -9.999984 0.000000
vt 21.518150 9.953916 0.000000
vt 20.506050 10.000000 0.000000
vt 0.506050 10.012100 0.000000
vt 20.506050 10.012100 0.000000
vt 21.526172 9.953916 0.000000
vt 21.518150 10.000000 0.000000
vt -11.009372 9.976950 0.000000
vt -11.022850 9.976950 0.000000
vt -11.009372 -9.976950 0.000000
vt -11.022850 -9.976950 0.000000
vt 11.014828 -9.976950 0.000000
vt 11.022850 -9.976950 0.000000
vt 11.014828 9.976950 0.000000
vt 11.022850 9.976950 0.000000
vt 0.500000 -11.009372 0.000000
vt -0.500000 -11.009372 0.000000
vt 0.500000 -11.022850 0.000000
vt -0.500000 -11.022850 0.000000
vt -0.500000 11.014828 0.000000
vt 0.500000 11.014828 0.000000
vt -0.500000 11.022850 0.000000
vt 0.500000 11.022850 0.000000
vt 0.500000 -11.009372 0.000000
vt -0.500000 -11.009372 0.000000
vt 0.500000 -11.022850 0.000000
vt -0.500000 -11.022850 0.000000
vt 0.500000 9.976950 0.000000
vt -0.500000 9.976950 0.000000
vt 0.500000 -9.976950 0.000000
vt -0.500000 -9.976950 0.000000
vt -0.500000 11.014828 0.000000
vt 0.500000 11.014828 0.000000
vt -0.500000 11.022850 0.000000
vt 0.500000 11.022850 0.000000
vt -0.500000 -9.976950 0.000000
vt 0.500000 -9.976950 0.000000
vt -0.500000 9.976950 0.000000
vt 0.500000 9.976950 0.000000
vt 7.000000 -9.953916 0.000000
vt 6.000000 -9.953916 0.000000
vt 7.000000 -10.000000 0.000000
vt -7.000000 -10.000000 0.000000
vt -7.000000 10.000000 0.000000
vt 6.000000 9.999984 0.000000
vt 7.000000 10.000000 0.000000
vt 7.000000 9.999984 0.000000
vt 7.000000 -9.999984 0.000000
vt 6.000000 -9.999984 0.000000
vt 7.000000 -10.000000 0.000000
vt -7.000000 -10.000000 0.000000
vt 6.000000 9.953916 0.000000
vt -7.000000 10.000000 0.000000
vt 7.000000 10.000000 0.000000
vt 7.000000 9.953916 0.000000
vt 7.000000 0.506050 0.000000
vt -7.000000 0.506050 0.000000
vt 7.000000 -21.518150 0.000000
vt -7.000000 -21.518150 0.000000
vt 9.912100 6.900000 0.000000
vt -9.900000 6.900000 0.000000
vt 9.912100 -6.900000 0.000000
vt -9.900000 -6.900000 0.000000
vt 10.912100 6.900000 0.000000
vt -10.912100 6.900000 0.000000
vt 10.912100 -6.900000 0.000000
vt -10.912100 -6.900000 0.000000
vt -10.914828 -9.876966 0.000000
vt 10.909372 -9.876966 0.000000
vt -10.914828 9.935134 0.000000
vt 10.909372 9.935134 0.000000
vt 9.900000 6.900000 0.000000
vt -9.912100 6.900000 0.000000
vt 9.900000 -6.900000 0.000000
vt -9.912100 -6.900000 0.000000
vt 10.912100 6.900000 0.000000
vt -10.912100 6.900000 0.000000
vt 10.912100 -6.900000 0.000000
vt -10.912100 -6.900000 0.000000
vt 21.824200 19.812100 0.000000
vt 0.000000 19.812100 0.000000
vt 21.824200 0.000000 0.000000
vt 0.000000 0.000000 0.000000
vn 0.000000 0.000000 -0.100000
vn 0.000000 0.000000 -0.100000
vn 0.000000 0.000000 -0.100000
vn 0.000000 0.000000 -0.100000
vn -0.000000 -0.100000 -0.000000
vn -0.000000 -0.100000 -0.000000
vn -0.000000 -0.100000 -0.000000
vn -0.000000 -0.100000 -0.000000
vn -0.000000 -0.100000 -0.000000
vn -0.000000 -0.100000 -0.000000
vn -0.000000 -0.100000 -0.000000
vn -0.000000 -0.100000 -0.000000
vn -0.000000 -0.000000 0.100000
vn -0.000000 -0.000000 0.100000
vn -0.000000 -0.000000 0.100000
vn -0.000000 -0.000000 0.100000
vn 0.100000 -0.000000 0.000000
vn 0.100000 -0.000000 0.000000
vn 0.100000 -0.000000 0.000000
vn 0.100000 -0.000000 0.000000
vn 0.100000 -0.000000 0.000000
vn 0.100000 -0.000000 0.000000
vn 0.000000 0.000000 -0.100000
vn 0.000000 0.000000 -0.100000
vn 0.000000 0.000000 -0.100000
vn 0.000000 0.000000 -0.100000
vn 0.100000 -0.000000 0.000000
vn 0.100000 -0.000000 0.000000
vn 0.100000 -0.000000 0.000000
vn 0.100000 -0.000000 0.000000
vn 0.100000 -0.000000 0.000000
vn 0.100000 -0.000000 0.000000
vn 0.000000 0.100000 0.000000
vn 0.000000 0.100000 0.000000
vn 0.000000 0.100000 0.000000
vn 0.000000 0.100000 0.000000
vn 0.000000 0.100000 0.000000
vn 0.000000 0.100000 0.000000
vn 0.000000 0.100000 0.000000
vn 0.000000 0.100000 0.000000
vn 0.100000 -0.000000 0.000000
vn 0.100000 -0.000000 0.000000
vn 0.100000 -0.000000 0.000000
vn 0.100000 -0.000000 0.000000
vn 0.100000 -0.000000 0.000000
vn 0.100000 -0.000000 0.000000
vn 0.100000 -0.000000 0.000000
vn 0.100000 -0.000000 0.000000
vn -0.000000 -0.000000 0.100000
vn -0.000000 -0.000000 0.100000
vn -0.000000 -0.000000 0.100000
vn -0.000000 -0.000000 0.100000
vn -0.000000 -0.100000 -0.000000
vn -0.000000 -0.100000 -0.000000
vn -0.000000 -0.100000 -0.000000
vn -0.000000 -0.100000 -0.000000
vn -0.000000 -0.100000 -0.000000
vn -0.000000 -0.100000 -0.000000
vn -0.000000 -0.100000 -0.000000
vn -0.000000 -0.100000 -0.000000
vn -0.000000 -0.100000 -0.000000
vn -0.000000 -0.100000 -0.000000
vn -0.000000 -0.100000 -0.000000
vn -0.000000 -0.100000 -0.000000
vn -0.000000 -0.100000 -0.000000
vn -0.000000 -0.100000 -0.000000
vn -0.000000 -0.100000 -0.000000
vn -0.000000 -0.100000 -0.000000
vn 0.000000 0.100000 0.000000
vn 0.000000 0.100000 0.000000
vn 0.000000 0.100000 0.000000
vn 0.000000 0.100000 0.000000
vn 0.000000 0.100000 0.000000
vn 0.000000 0.100000 0.000000
vn 0.000000 0.100000 0.000000
vn 0.000000 0.100000 0.000000
vn -0.100000 0.000000 -0.000000
vn -0.100000 0.000000 -0.000000
vn -0.100000 0.000000 -0.000000
vn -0.100000 0.000000 -0.000000
vn 0.100000 -0.000000 0.000000
vn 0.100000 -0.000000 0.000000
vn 0.100000 -0.000000 0.000000
vn 0.100000 -0.000000 0.000000
vn 0.100000 -0.000000 0.000000
vn 0.100000 -0.000000 0.000000
vn 0.100000 -0.000000 0.000000
vn 0.100000 -0.000000 0.000000
vn -0.000000 -0.000000 0.100000
vn -0.000000 -0.000000 0.100000
vn -0.000000 -0.000000 0.100000
vn -0.000000 -0.000000 0.100000
vn -0.100000 0.000000 -0.000000
vn -0.100000 0.000000 -0.000000
vn -0.100000 0.000000 -0.000000
vn -0.100000 0.000000 -0.000000
vn 0.000000 0.000000 -0.100000
vn 0.000000 0.000000 -0.100000
vn 0.000000 0.000000 -0.100000
vn 0.000000 0.000000 -0.100000
vn 0.000000 0.000000 -0.100000
vn 0.000000 0.000000 -0.100000
vn 0.000000 0.000000 -0.100000
vn 0.000000 0.000000 -0.100000
vn 0.000000 0.000000 -0.100000
vn 0.000000 0.000000 -0.100000
vn 0.000000 0.000000 -0.100000
vn 0.000000 0.000000 -0.100000
vn -0.000000 -0.000000 0.100000
vn -0.000000 -0.000000 0.100000
vn -0.000000 -0.000000 0.100000
vn -0.000000 -0.000000 0.100000
vn -0.000000 -0.000000 0.100000
vn -0.000000 -0.000000 0.100000
vn -0.000000 -0.000000 0.100000
vn -0.000000 -0.000000 0.100000
vn -0.100000 0.000000 -0.000000
vn -0.100000 0.000000 -0.000000
vn -0.100000 0.000000 -0.000000
vn -0.100000 0.000000 -0.000000
vn -0.000000 -0.000000 0.100000
vn -0.000000 -0.000000 0.100000
vn -0.000000 -0.000000 0.100000
vn -0.000000 -0.000000 0.100000
vn -0.100000 0.000000 -0.000000
vn -0.100000 0.000000 -0.000000
vn -0.100000 0.000000 -0.000000
vn -0.100000 0.000000 -0.000000
vn 0.000000 0.100000 0.000000
vn 0.000000 0.100000 0.000000
vn 0.000000 0.100000 0.000000
vn 0.000000 0.100000 0.000000
vn 0.000000 0.000000 -0.100000
vn 0.000000 0.000000 -0.100000
vn 0.000000 0.000000 -0.100000
vn 0.000000 0.000000 -0.100000
vn 0.100000 -0.000000 0.000000
vn 0.100000 -0.000000 0.000000
vn 0.100000 -0.000000 0.000000
vn 0.100000 -0.000000 0.000000
vn -0.000000 -0.100000 -0.000000
vn -0.000000 -0.100000 -0.000000
vn -0.000000 -0.100000 -0.000000
vn -0.000000 -0.100000 -0.000000
usemtl Steel_-_Satin
f 1/1/1 2/2/2 4/3/3
f 4/3/3 2/2/2 3/4/4
f 5/5/5 6/6/6 8/7/7
f 8/7/7 6/6/6 7/8/8
f 9/9/9 1/10/10 10/11/11
f 10/11/11 1/10/10 4/12/12
f 11/13/13 5/14/14 12/15/15
f 12/15/15 5/14/14 8/16/16
f 2/17/17 1/18/18 15/19/19
f 15/19/19 1/18/18 14/20/20
f 14/20/20 1/18/18 13/21/21
f 13/21/21 1/18/18 9/22/22
f 10/23/23 16/24/24 9/25/25
f 9/25/25 16/24/24 13/26/26
f 6/27/27 5/28/28 19/29/29
f 19/29/29 5/28/28 18/30/30
f 18/30/30 5/28/28 17/31/31
f 17/31/31 5/28/28 11/32/32
f 15/33/33 20/34/34 2/35/35
f 2/35/35 20/34/34 21/36/36
f 2/35/35 21/36/36 11/37/37
f 11/37/37 21/36/36 17/38/38
f 11/37/37 12/39/39 2/35/35
f 2/35/35 12/39/39 3/40/40
f 22/41/41 10/42/42 7/43/43
f 7/43/43 10/42/42 12/44/44
f 7/43/43 12/44/44 8/45/45
f 22/41/41 16/46/46 10/42/42
f 4/47/47 3/48/48 10/42/42
f 10/42/42 3/48/48 12/44/44
f 6/49/49 19/50/50 7/51/51
f 7/51/51 19/50/50 22/52/52
f 18/53/53 23/54/54 19/55/55
f 19/55/55 23/54/54 26/56/56
f 19/55/55 26/56/56 29/57/57
f 29/57/57 26/56/56 28/58/58
f 28/58/58 26/56/56 27/59/59
f 23/54/54 24/60/60 26/56/56
f 26/56/56 24/60/60 25/61/61
f 30/62/62 32/63/63 29/57/57
f 29/57/57 32/63/63 13/64/64
f 29/57/57 13/64/64 19/55/55
f 19/55/55 13/64/64 22/65/65
f 22/65/65 13/64/64 16/66/66
f 30/62/62 31/67/67 32/63/63
f 32/63/63 14/68/68 13/64/64
f 34/69/69 35/70/70 33/71/71
f 33/71/71 35/70/70 36/72/72
f 38/73/73 39/74/74 37/75/75
f 37/75/75 39/74/74 40/76/76
f 34/77/77 26/78/78 35/79/79
f 35/79/79 26/78/78 25/80/80
f 38/81/81 32/82/82 39/83/83
f 39/83/83 32/82/82 31/84/84
f 23/85/85 33/86/86 24/87/87
f 24/87/87 33/86/86 36/88/88
f 35/89/89 25/90/90 36/91/91
f 36/91/91 25/90/90 24/92/92
f 29/93/93 37/94/94 30/95/95
f 30/95/95 37/94/94 40/96/96
f 39/97/97 31/98/98 40/99/99
f 40/99/99 31/98/98 30/100/100
f 32/101/101 38/102/102 14/103/103
f 14/103/103 38/102/102 15/104/104
f 15/104/104 38/102/102 20/105/105
f 20/105/105 38/102/102 37/106/106
f 20/105/105 37/106/106 28/107/107
f 28/107/107 37/106/106 29/108/108
f 26/109/109 34/110/110 27/111/111
f 27/111/111 34/110/110 21/112/112
f 21/112/112 34/110/110 33/113/113
f 21/112/112 33/113/113 17/114/114
f 17/114/114 33/113/113 18/115/115
f 18/115/115 33/113/113 23/116/116
f 27/117/117 21/118/118 28/119/119
f 28/119/119 21/118/118 20/120/120
f 41/121/121 42/122/122 44/123/123
f 44/123/123 42/122/122 43/124/124
f 45/125/125 41/126/126 46/127/127
f 46/127/127 41/126/126 44/128/128
f 43/129/129 47/130/130 44/131/131
f 44/131/131 47/130/130 46/132/132
f 48/133/133 45/134/134 47/135/135
f 47/135/135 45/134/134 46/136/136
f 42/137/137 48/138/138 43/139/139
f 43/139/139 48/138/138 47/140/140
f 41/141/141 45/142/142 42/143/143
f 42/143/143 45/142/142 48/144/144
g Body14

v 35.659281 113.995191 -25.370384
v 35.659281 113.995191 -75.370384
v 35.659281 88.995191 -75.370384
v 35.659281 88.995191 -25.370384
v 69.968281 113.995191 -75.370384
v 69.968281 88.995191 -75.370384
v 69.968281 113.995191 -25.370384
v 69.968281 88.995191 -25.370384
vt 5.000000 2.500000 0.000000
vt -0.000000 2.500000 0.000000
vt 5.000000 0.000000 0.000000
vt -0.000000 -0.000000 0.000000
vt 3.430900 2.500000 0.000000
vt 0.000000 2.500000 0.000000
vt 3.430900 0.000000 0.000000
vt 0.000000 0.000000 0.000000
vt -5.000000 5.500000 0.000000
vt -0.000000 5.500000 0.000000
vt -5.000000 8.930900 0.000000
vt -0.000000 8.930900 0.000000
vt 5.000000 2.500000 0.000000
vt 0.000000 2.500000 0.000000
vt 5.000000 0.000000 0.000000
vt 0.000000 0.000000 0.000000
vt 2.000000 0.000000 0.000000
vt 5.430900 -0.000000 0.000000
vt 2.000000 2.500000 0.000000
vt 5.430900 2.500000 0.000000
vt -5.500000 5.000000 0.000000
vt -8.930900 5.000000 0.000000
vt -5.500000 0.000000 0.000000
vt -8.930900 0.000000 0.000000
vn -0.100000 0.000000 -0.000000
vn -0.100000 0.000000 -0.000000
vn -0.100000 0.000000 -0.000000
vn -0.100000 0.000000 -0.000000
vn 0.000000 -0.000000 -0.100000
vn 0.000000 -0.000000 -0.100000
vn 0.000000 -0.000000 -0.100000
vn 0.000000 -0.000000 -0.100000
vn 0.000000 0.100000 -0.000000
vn 0.000000 0.100000 -0.000000
vn 0.000000 0.100000 -0.000000
vn 0.000000 0.100000 -0.000000
vn 0.100000 -0.000000 0.000000
vn 0.100000 -0.000000 0.000000
vn 0.100000 -0.000000 0.000000
vn 0.100000 -0.000000 0.000000
vn -0.000000 0.000000 0.100000
vn -0.000000 0.000000 0.100000
vn -0.000000 0.000000 0.100000
vn -0.000000 0.000000 0.100000
vn -0.000000 -0.100000 0.000000
vn -0.000000 -0.100000 0.000000
vn -0.000000 -0.100000 0.000000
vn -0.000000 -0.100000 0.000000
f 49/145/145 50/146/146 52/147/147
f 52/147/147 50/146/146 51/148/148
f 50/149/149 53/150/150 51/151/151
f 51/151/151 53/150/150 54/152/152
f 50/153/153 49/154/154 53/155/155
f 53/155/155 49/154/154 55/156/156
f 53/157/157 55/158/158 54/159/159
f 54/159/159 55/158/158 56/160/160
f 52/161/161 56/162/162 49/163/163
f 49/163/163 56/162/162 55/164/164
f 51/165/165 54/166/166 52/167/167
f 52/167/167 54/166/166 56/168/168
g Body16

v 184.968281 15.995191 -45.370384
v 184.968281 153.995191 -45.370384
v 184.968281 153.995191 -25.370384
v 184.968281 15.995191 -25.370384
v 165.659281 153.995191 -45.370384
v 165.659281 153.995191 -25.370384
v 165.659281 15.995191 -45.370384
v 165.659281 15.995191 -25.370384
vt 2.000000 9.500000 0.000000
vt 0.000000 9.500000 0.000000
vt 2.000000 -4.300000 0.000000
vt -0.000000 -4.300000 0.000000
vt -0.000000 5.430900 0.000000
vt -2.000000 5.430900 0.000000
vt -0.000000 3.500000 0.000000
vt -2.000000 3.500000 0.000000
vt -2.965450 -3.550000 0.000000
vt -1.034550 -3.550000 0.000000
vt -2.965450 10.250000 0.000000
vt -1.034550 10.250000 0.000000
vt -2.000000 -2.800000 0.000000
vt 0.000000 -2.800000 0.000000
vt -2.000000 11.000000 0.000000
vt -0.000000 11.000000 0.000000
vt 2.000000 -3.500000 0.000000
vt 0.000000 -3.500000 0.000000
vt 2.000000 -5.430900 0.000000
vt 0.000000 -5.430900 0.000000
vt 3.550000 2.965450 0.000000
vt -10.250000 2.965450 0.000000
vt 3.550000 1.034550 0.000000
vt -10.250000 1.034550 0.000000
vn 0.100000 -0.000000 0.000000
vn 0.100000 -0.000000 0.000000
vn 0.100000 -0.000000 0.000000
vn 0.100000 -0.000000 0.000000
vn 0.000000 0.100000 -0.000000
vn 0.000000 0.100000 -0.000000
vn 0.000000 0.100000 -0.000000
vn 0.000000 0.100000 -0.000000
vn 0.000000 -0.000000 -0.100000
vn 0.000000 -0.000000 -0.100000
vn 0.000000 -0.000000 -0.100000
vn 0.000000 -0.000000 -0.100000
vn -0.100000 0.000000 -0.000000
vn -0.100000 0.000000 -0.000000
vn -0.100000 0.000000 -0.000000
vn -0.100000 0.000000 -0.000000
vn -0.000000 -0.100000 0.000000
vn -0.000000 -0.100000 0.000000
vn -0.000000 -0.100000 0.000000
vn -0.000000 -0.100000 0.000000
vn -0.000000 0.000000 0.100000
vn -0.000000 0.000000 0.100000
vn -0.000000 0.000000 0.100000
vn -0.000000 0.000000 0.100000
f 58/169/169 59/170/170 57/171/171
f 57/171/171 59/170/170 60/172/172
f 59/173/173 58/174/174 62/175/175
f 62/175/175 58/174/174 61/176/176
f 57/177/177 63/178/178 58/179/179
f 58/179/179 63/178/178 61/180/180
f 63/181/181 64/182/182 61/183/183
f 61/183/183 64/182/182 62/184/184
f 57/185/185 60/186/186 63/187/187
f 63/187/187 60/186/186 64/188/188
f 60/189/189 59/190/190 64/191/191
f 64/191/191 59/190/190 62/192/192
g Body17

v 199.968281 83.995191 -160.370384
v 199.968281 83.995191 -110.370384
v 199.968281 63.995191 -110.370384
v 199.968281 63.995191 -160.370384
v 0.659281 83.995191 -110.370384
v 0.659281 83.995191 -160.370384
v 0.659281 63.995191 -160.370384
v 0.659281 63.995191 -110.370384
vt 5.000000 2.000000 0.000000
vt 0.000000 2.000000 0.000000
vt 5.000000 -0.000000 0.000000
vt 0.000000 0.000000 0.000000
vt 5.000000 2.000000 0.000000
vt -0.000000 2.000000 0.000000
vt 5.000000 0.000000 0.000000
vt 0.000000 -0.000000 0.000000
vt 0.000000 9.930900 0.000000
vt -5.000000 9.930900 0.000000
vt 0.000000 -10.000000 0.000000
vt -5.000000 -10.000000 0.000000
vt 18.930900 2.000000 0.000000
vt -1.000000 2.000000 0.000000
vt 18.930900 -0.000000 0.000000
vt -1.000000 0.000000 0.000000
vt 6.430900 2.000000 0.000000
vt -13.500000 2.000000 0.000000
vt 6.430900 -0.000000 0.000000
vt -13.500000 0.000000 0.000000
vt 10.000000 5.000000 0.000000
vt -9.930900 5.000000 0.000000
vt 10.000000 -0.000000 0.000000
vt -9.930900 -0.000000 0.000000
vn 0.100000 -0.000000 0.000000
vn 0.100000 -0.000000 0.000000
vn 0.100000 -0.000000 0.000000
vn 0.100000 -0.000000 0.000000
vn -0.100000 0.000000 0.000000
vn -0.100000 0.000000 0.000000
vn -0.100000 0.000000 0.000000
vn -0.100000 0.000000 0.000000
vn 0.000000 0.100000 -0.000000
vn 0.000000 0.100000 -0.000000
vn 0.000000 0.100000 -0.000000
vn 0.000000 0.100000 -0.000000
vn 0.000000 -0.000000 -0.100000
vn 0.000000 -0.000000 -0.100000
vn 0.000000 -0.000000 -0.100000
vn 0.000000 -0.000000 -0.100000
vn -0.000000 0.000000 0.100000
vn -0.000000 0.000000 0.100000
vn -0.000000 0.000000 0.100000
vn -0.000000 0.000000 0.100000
vn -0.000000 -0.100000 0.000000
vn -0.000000 -0.100000 0.000000
vn -0.000000 -0.100000 0.000000
vn -0.000000 -0.100000 0.000000
f 65/193/193 66/194/194 68/195/195
f 68/195/195 66/194/194 67/196/196
f 69/197/197 70/198/198 72/199/199
f 72/199/199 70/198/198 71/200/200
f 66/201/201 65/202/202 69/203/203
f 69/203/203 65/202/202 70/204/204
f 70/205/205 65/206/206 71/207/207
f 71/207/207 65/206/206 68/208/208
f 66/209/209 69/210/210 67/211/211
f 67/211/211 69/210/210 72/212/212
f 71/213/213 68/214/214 72/215/215
f 72/215/215 68/214/214 67/216/216
# 72 vertices
# 216 texture params
# 216 normals
# 124 facets

# 4 groups
