# WaveFront *.obj file (generated by Autodesk ATF)

mtllib Fshapereal.mtl

g Body1

v 2.500000 -5.000000 -10.000000
v 2.500000 5.000000 -10.000000
v 17.500000 5.000000 -10.000000
v 17.500000 -5.000000 -10.000000
v 2.500000 5.000000 0.000000
v 2.500000 -5.000000 0.000000
v 17.500000 -5.000000 0.000000
v 17.500000 5.000000 0.000000
v 2.500000 5.000000 30.000000
v 2.500000 -5.000000 30.000000
v 2.500000 -5.000000 -20.000000
v 2.500000 5.000000 -20.000000
v -7.500000 5.000000 30.000000
v -7.500000 -5.000000 30.000000
v 27.500000 5.000000 -20.000000
v 27.500000 5.000000 -30.000000
v -7.500000 5.000000 -30.000000
v 27.500000 -5.000000 -20.000000
v 27.500000 -5.000000 -30.000000
v -7.500000 -5.000000 -30.000000
vt 0.000000 0.000000 0.000000
vt 1.000000 0.000000 0.000000
vt 0.000000 1.500000 0.000000
vt 1.000000 1.500000 0.000000
vt 0.000000 0.000000 0.000000
vt 1.000000 0.000000 0.000000
vt 0.000000 1.500000 0.000000
vt 1.000000 1.500000 0.000000
vt -0.500000 -0.500000 0.000000
vt 0.500000 -0.500000 0.000000
vt -0.500000 0.500000 0.000000
vt 0.500000 0.500000 0.000000
vt 3.000000 1.000000 0.000000
vt -0.000000 1.000000 0.000000
vt 3.000000 0.000000 0.000000
vt -0.000000 0.000000 0.000000
vt 4.000000 0.000000 0.000000
vt 5.000000 0.000000 0.000000
vt 4.000000 1.000000 0.000000
vt 5.000000 1.000000 0.000000
vt 1.000000 1.000000 0.000000
vt 0.000000 1.000000 0.000000
vt 1.000000 0.000000 0.000000
vt 0.000000 0.000000 0.000000
vt 2.500000 -0.500000 0.000000
vt -0.500000 -0.500000 0.000000
vt 2.500000 -1.500000 0.000000
vt -3.500000 -1.500000 0.000000
vt -1.500000 -0.500000 0.000000
vt -2.500000 -0.500000 0.000000
vt -0.500000 1.000000 0.000000
vt -1.500000 1.000000 0.000000
vt -2.500000 2.000000 0.000000
vt -3.500000 2.000000 0.000000
vt 1.000000 2.000000 0.000000
vt -0.000000 2.000000 0.000000
vt 1.000000 -0.500000 0.000000
vt 0.000000 -0.500000 0.000000
vt 0.500000 0.500000 0.000000
vt -0.500000 0.500000 0.000000
vt 0.500000 -0.500000 0.000000
vt -0.500000 -0.500000 0.000000
vt 3.000000 1.000000 0.000000
vt -0.500000 1.000000 0.000000
vt 3.000000 0.000000 0.000000
vt -0.500000 0.000000 0.000000
vt 5.000000 1.000000 0.000000
vt -1.000000 1.000000 0.000000
vt 5.000000 0.000000 0.000000
vt -1.000000 0.000000 0.000000
vt 0.500000 1.500000 0.000000
vt 1.500000 3.500000 0.000000
vt 0.500000 2.500000 0.000000
vt -2.000000 3.500000 0.000000
vt -2.000000 2.500000 0.000000
vt 0.500000 0.500000 0.000000
vt -1.000000 1.500000 0.000000
vt -1.000000 0.500000 0.000000
vt 0.500000 -2.500000 0.000000
vt 1.500000 -2.500000 0.000000
vn 0.000000 0.000000 -0.100000
vn 0.000000 0.000000 -0.100000
vn 0.000000 0.000000 -0.100000
vn 0.000000 0.000000 -0.100000
vn 0.000000 0.000000 0.100000
vn 0.000000 0.000000 0.100000
vn 0.000000 0.000000 0.100000
vn 0.000000 0.000000 0.100000
vn 0.100000 0.000000 0.000000
vn 0.100000 0.000000 0.000000
vn 0.100000 0.000000 0.000000
vn 0.100000 0.000000 0.000000
vn 0.100000 0.000000 0.000000
vn 0.100000 0.000000 0.000000
vn 0.100000 0.000000 0.000000
vn 0.100000 0.000000 0.000000
vn 0.100000 0.000000 0.000000
vn 0.100000 0.000000 0.000000
vn 0.100000 0.000000 0.000000
vn 0.100000 0.000000 0.000000
vn 0.000000 0.000000 0.100000
vn 0.000000 0.000000 0.100000
vn 0.000000 0.000000 0.100000
vn 0.000000 0.000000 0.100000
vn -0.000000 0.100000 -0.000000
vn -0.000000 0.100000 -0.000000
vn -0.000000 0.100000 -0.000000
vn -0.000000 0.100000 -0.000000
vn -0.000000 0.100000 -0.000000
vn -0.000000 0.100000 -0.000000
vn -0.000000 0.100000 -0.000000
vn -0.000000 0.100000 -0.000000
vn -0.000000 0.100000 -0.000000
vn -0.000000 0.100000 -0.000000
vn 0.000000 0.000000 0.100000
vn 0.000000 0.000000 0.100000
vn 0.000000 0.000000 0.100000
vn 0.000000 0.000000 0.100000
vn 0.100000 0.000000 0.000000
vn 0.100000 0.000000 0.000000
vn 0.100000 0.000000 0.000000
vn 0.100000 0.000000 0.000000
vn 0.000000 0.000000 -0.100000
vn 0.000000 0.000000 -0.100000
vn 0.000000 0.000000 -0.100000
vn 0.000000 0.000000 -0.100000
vn -0.100000 0.000000 0.000000
vn -0.100000 0.000000 0.000000
vn -0.100000 0.000000 0.000000
vn -0.100000 0.000000 0.000000
vn 0.000000 -0.100000 0.000000
vn 0.000000 -0.100000 0.000000
vn 0.000000 -0.100000 0.000000
vn 0.000000 -0.100000 0.000000
vn 0.000000 -0.100000 0.000000
vn 0.000000 -0.100000 0.000000
vn 0.000000 -0.100000 0.000000
vn 0.000000 -0.100000 0.000000
vn 0.000000 -0.100000 0.000000
vn 0.000000 -0.100000 0.000000
usemtl Steel_-_Satin
f 1/1/1 2/2/2 4/3/3
f 4/3/3 2/2/2 3/4/4
f 5/5/5 6/6/6 8/7/7
f 8/7/7 6/6/6 7/8/8
f 7/9/9 4/10/10 8/11/11
f 8/11/11 4/10/10 3/12/12
f 5/13/13 9/14/14 6/15/15
f 6/15/15 9/14/14 10/16/16
f 1/17/17 11/18/18 2/19/19
f 2/19/19 11/18/18 12/20/20
f 9/21/21 13/22/22 10/23/23
f 10/23/23 13/22/22 14/24/24
f 9/25/25 5/26/26 13/27/27
f 13/27/27 5/26/26 17/28/28
f 17/28/28 5/26/26 2/29/29
f 17/28/28 2/29/29 12/30/30
f 8/31/31 3/32/32 5/26/26
f 5/26/26 3/32/32 2/29/29
f 15/33/33 16/34/34 12/30/30
f 12/30/30 16/34/34 17/28/28
f 18/35/35 15/36/36 11/37/37
f 11/37/37 15/36/36 12/38/38
f 16/39/39 15/40/40 19/41/41
f 19/41/41 15/40/40 18/42/42
f 17/43/43 16/44/44 20/45/45
f 20/45/45 16/44/44 19/46/46
f 13/47/47 17/48/48 14/49/49
f 14/49/49 17/48/48 20/50/50
f 1/51/51 20/52/52 11/53/53
f 11/53/53 20/52/52 19/54/54
f 11/53/53 19/54/54 18/55/55
f 20/52/52 1/51/51 6/56/56
f 6/56/56 1/51/51 4/57/57
f 6/56/56 4/57/57 7/58/58
f 10/59/59 14/60/60 6/56/56
f 6/56/56 14/60/60 20/52/52
# 20 vertices
# 60 texture params
# 60 normals
# 36 facets

# 1 groups
