# WaveFront *.obj file (generated by Autodesk ATF)

mtllib Lcouch.mtl

g Body1

v -101.229833 106.654527 0.000000
v -101.229833 94.986675 0.000000
v -101.229833 94.986675 -5.000000
v -101.229833 106.654527 -5.000000
v -116.964223 106.654527 0.000000
v -116.964223 106.654527 -5.000000
v -116.964223 101.137273 0.000000
v -116.964223 101.137273 -5.000000
v -107.464544 101.137273 0.000000
v -107.464544 101.137273 -5.000000
v -107.464544 94.986675 0.000000
v -107.464544 94.986675 -5.000000
vt 0.000000 0.000000 0.000000
vt 1.166785 0.000000 0.000000
vt 0.000000 0.500000 0.000000
vt 1.166785 0.500000 0.000000
vt 0.000000 0.000000 0.000000
vt 1.573439 0.000000 0.000000
vt 0.000000 0.500000 0.000000
vt 1.573439 0.500000 0.000000
vt 0.000000 0.000000 0.000000
vt 0.551725 0.000000 0.000000
vt 0.000000 0.500000 0.000000
vt 0.551725 0.500000 0.000000
vt 0.000000 0.000000 0.000000
vt 0.949968 0.000000 0.000000
vt 0.000000 0.500000 0.000000
vt 0.949968 0.500000 0.000000
vt 0.000000 0.000000 0.000000
vt 0.615060 0.000000 0.000000
vt 0.000000 0.500000 0.000000
vt 0.615060 0.500000 0.000000
vt 0.000000 0.000000 0.000000
vt 0.623471 0.000000 0.000000
vt 0.000000 0.500000 0.000000
vt 0.623471 0.500000 0.000000
vt 0.163248 -0.583393 0.000000
vt 0.786719 -0.583393 0.000000
vt 0.163248 0.031667 0.000000
vt 0.786719 0.583393 0.000000
vt -0.786719 0.583393 0.000000
vt -0.786719 0.031667 0.000000
vt -0.163248 -0.583393 0.000000
vt -0.163248 0.031667 0.000000
vt -0.786719 -0.583393 0.000000
vt -0.786719 0.583393 0.000000
vt 0.786719 0.583393 0.000000
vt 0.786719 0.031667 0.000000
vn 0.100000 0.000000 0.000000
vn 0.100000 0.000000 0.000000
vn 0.100000 0.000000 0.000000
vn 0.100000 0.000000 0.000000
vn 0.000000 0.100000 0.000000
vn 0.000000 0.100000 0.000000
vn 0.000000 0.100000 0.000000
vn 0.000000 0.100000 0.000000
vn -0.100000 0.000000 0.000000
vn -0.100000 0.000000 0.000000
vn -0.100000 0.000000 0.000000
vn -0.100000 0.000000 0.000000
vn 0.000000 -0.100000 0.000000
vn 0.000000 -0.100000 0.000000
vn 0.000000 -0.100000 0.000000
vn 0.000000 -0.100000 0.000000
vn -0.100000 0.000000 0.000000
vn -0.100000 0.000000 0.000000
vn -0.100000 0.000000 0.000000
vn -0.100000 0.000000 0.000000
vn 0.000000 -0.100000 0.000000
vn 0.000000 -0.100000 0.000000
vn 0.000000 -0.100000 0.000000
vn 0.000000 -0.100000 0.000000
vn 0.000000 -0.000000 0.100000
vn 0.000000 -0.000000 0.100000
vn 0.000000 -0.000000 0.100000
vn 0.000000 -0.000000 0.100000
vn 0.000000 -0.000000 0.100000
vn 0.000000 -0.000000 0.100000
vn 0.000000 0.000000 -0.100000
vn 0.000000 0.000000 -0.100000
vn 0.000000 0.000000 -0.100000
vn 0.000000 0.000000 -0.100000
vn 0.000000 0.000000 -0.100000
vn 0.000000 0.000000 -0.100000
usemtl Steel_-_Satin
f 1/1/1 2/2/2 4/3/3
f 4/3/3 2/2/2 3/4/4
f 5/5/5 1/6/6 6/7/7
f 6/7/7 1/6/6 4/8/8
f 7/9/9 5/10/10 8/11/11
f 8/11/11 5/10/10 6/12/12
f 9/13/13 7/14/14 10/15/15
f 10/15/15 7/14/14 8/16/16
f 11/17/17 9/18/18 12/19/19
f 12/19/19 9/18/18 10/20/20
f 2/21/21 11/22/22 3/23/23
f 3/23/23 11/22/22 12/24/24
f 11/25/25 2/26/26 9/27/27
f 9/27/27 2/26/26 1/28/28
f 9/27/27 1/28/28 5/29/29
f 5/29/29 7/30/30 9/27/27
f 12/31/31 10/32/32 3/33/33
f 3/33/33 10/32/32 4/34/34
f 4/34/34 10/32/32 6/35/35
f 6/35/35 10/32/32 8/36/36
# 12 vertices
# 36 texture params
# 36 normals
# 20 facets

# 1 groups
