# WaveFront *.obj file (generated by Autodesk ATF)

mtllib Fshape3d.mtl

g Body1

v 2.500000 -5.000000 -20.000000
v 2.500000 5.000000 -20.000000
v 2.500000 5.000000 30.000000
v 2.500000 -5.000000 30.000000
v -7.500000 5.000000 30.000000
v -7.500000 -5.000000 30.000000
v 27.500000 5.000000 -20.000000
v 27.500000 5.000000 -30.000000
v -7.500000 5.000000 -30.000000
v 27.500000 -5.000000 -20.000000
v 27.500000 -5.000000 -30.000000
v -7.500000 -5.000000 -30.000000
vt 5.000000 1.000000 0.000000
vt -0.000000 1.000000 0.000000
vt 5.000000 0.000000 0.000000
vt -0.000000 0.000000 0.000000
vt 1.000000 1.000000 0.000000
vt 0.000000 1.000000 0.000000
vt 1.000000 0.000000 0.000000
vt 0.000000 0.000000 0.000000
vt 2.500000 -0.500000 0.000000
vt -2.500000 -0.500000 0.000000
vt 2.500000 -1.500000 0.000000
vt -3.500000 -1.500000 0.000000
vt -3.500000 2.000000 0.000000
vt -2.500000 2.000000 0.000000
vt 1.000000 2.000000 0.000000
vt -0.000000 2.000000 0.000000
vt 1.000000 -0.500000 0.000000
vt 0.000000 -0.500000 0.000000
vt 0.500000 0.500000 0.000000
vt -0.500000 0.500000 0.000000
vt 0.500000 -0.500000 0.000000
vt -0.500000 -0.500000 0.000000
vt 3.000000 1.000000 0.000000
vt -0.500000 1.000000 0.000000
vt 3.000000 0.000000 0.000000
vt -0.500000 0.000000 0.000000
vt 5.000000 1.000000 0.000000
vt -1.000000 1.000000 0.000000
vt 5.000000 0.000000 0.000000
vt -1.000000 0.000000 0.000000
vt 0.500000 -2.500000 0.000000
vt 1.500000 -2.500000 0.000000
vt 0.500000 2.500000 0.000000
vt 1.500000 3.500000 0.000000
vt -2.000000 3.500000 0.000000
vt -2.000000 2.500000 0.000000
vn 0.100000 0.000000 0.000000
vn 0.100000 0.000000 0.000000
vn 0.100000 0.000000 0.000000
vn 0.100000 0.000000 0.000000
vn 0.000000 0.000000 0.100000
vn 0.000000 0.000000 0.100000
vn 0.000000 0.000000 0.100000
vn 0.000000 0.000000 0.100000
vn -0.000000 0.100000 -0.000000
vn -0.000000 0.100000 -0.000000
vn -0.000000 0.100000 -0.000000
vn -0.000000 0.100000 -0.000000
vn -0.000000 0.100000 -0.000000
vn -0.000000 0.100000 -0.000000
vn 0.000000 0.000000 0.100000
vn 0.000000 0.000000 0.100000
vn 0.000000 0.000000 0.100000
vn 0.000000 0.000000 0.100000
vn 0.100000 0.000000 0.000000
vn 0.100000 0.000000 0.000000
vn 0.100000 0.000000 0.000000
vn 0.100000 0.000000 0.000000
vn 0.000000 0.000000 -0.100000
vn 0.000000 0.000000 -0.100000
vn 0.000000 0.000000 -0.100000
vn 0.000000 0.000000 -0.100000
vn -0.100000 0.000000 0.000000
vn -0.100000 0.000000 0.000000
vn -0.100000 0.000000 0.000000
vn -0.100000 0.000000 0.000000
vn 0.000000 -0.100000 0.000000
vn 0.000000 -0.100000 0.000000
vn 0.000000 -0.100000 0.000000
vn 0.000000 -0.100000 0.000000
vn 0.000000 -0.100000 0.000000
vn 0.000000 -0.100000 0.000000
usemtl Steel_-_Satin
f 2/1/1 3/2/2 1/3/3
f 1/3/3 3/2/2 4/4/4
f 3/5/5 5/6/6 4/7/7
f 4/7/7 5/6/6 6/8/8
f 3/9/9 2/10/10 5/11/11
f 5/11/11 2/10/10 9/12/12
f 9/12/12 2/10/10 8/13/13
f 8/13/13 2/10/10 7/14/14
f 10/15/15 7/16/16 1/17/17
f 1/17/17 7/16/16 2/18/18
f 8/19/19 7/20/20 11/21/21
f 11/21/21 7/20/20 10/22/22
f 9/23/23 8/24/24 12/25/25
f 12/25/25 8/24/24 11/26/26
f 5/27/27 9/28/28 6/29/29
f 6/29/29 9/28/28 12/30/30
f 4/31/31 6/32/32 1/33/33
f 1/33/33 6/32/32 12/34/34
f 1/33/33 12/34/34 11/35/35
f 11/35/35 10/36/36 1/33/33
# 12 vertices
# 36 texture params
# 36 normals
# 20 facets

# 1 groups
