# WaveFront *.obj file (generated by Autodesk ATF)

mtllib Body1.mtl

g Body1

v 15.000000 10.000000 0.000000
v 15.000000 10.000000 -60.000000
v 0.000000 10.000000 -60.000000
v 0.000000 10.000000 0.000000
v 15.000000 0.000000 -60.000000
v 0.000000 0.000000 -60.000000
v 15.000000 0.000000 0.000000
v 0.000000 0.000000 0.000000
vt 2.500000 0.000000 0.000000
vt -3.500000 0.000000 0.000000
vt 2.500000 -1.500000 0.000000
vt -3.500000 -1.500000 0.000000
vt 3.000000 1.000000 0.000000
vt 1.500000 1.000000 0.000000
vt 3.000000 0.000000 0.000000
vt 1.500000 0.000000 0.000000
vt 6.000000 1.000000 0.000000
vt -0.000000 1.000000 0.000000
vt 6.000000 0.000000 0.000000
vt -0.000000 0.000000 0.000000
vt 1.500000 1.000000 0.000000
vt 0.000000 1.000000 0.000000
vt 1.500000 0.000000 0.000000
vt 0.000000 0.000000 0.000000
vt 5.000000 1.000000 0.000000
vt -1.000000 1.000000 0.000000
vt 5.000000 0.000000 0.000000
vt -1.000000 0.000000 0.000000
vt -0.000000 -2.500000 0.000000
vt 1.500000 -2.500000 0.000000
vt -0.000000 3.500000 0.000000
vt 1.500000 3.500000 0.000000
vn -0.000000 0.100000 -0.000000
vn -0.000000 0.100000 -0.000000
vn -0.000000 0.100000 -0.000000
vn -0.000000 0.100000 -0.000000
vn 0.000000 0.000000 -0.100000
vn 0.000000 0.000000 -0.100000
vn 0.000000 0.000000 -0.100000
vn 0.000000 0.000000 -0.100000
vn 0.100000 0.000000 0.000000
vn 0.100000 0.000000 0.000000
vn 0.100000 0.000000 0.000000
vn 0.100000 0.000000 0.000000
vn 0.000000 -0.000000 0.100000
vn 0.000000 -0.000000 0.100000
vn 0.000000 -0.000000 0.100000
vn 0.000000 -0.000000 0.100000
vn -0.100000 0.000000 0.000000
vn -0.100000 0.000000 0.000000
vn -0.100000 0.000000 0.000000
vn -0.100000 0.000000 0.000000
vn 0.000000 -0.100000 0.000000
vn 0.000000 -0.100000 0.000000
vn 0.000000 -0.100000 0.000000
vn 0.000000 -0.100000 0.000000
usemtl Steel_-_Satin
f 1/1/1 2/2/2 4/3/3
f 4/3/3 2/2/2 3/4/4
f 3/5/5 2/6/6 6/7/7
f 6/7/7 2/6/6 5/8/8
f 2/9/9 1/10/10 5/11/11
f 5/11/11 1/10/10 7/12/12
f 1/13/13 4/14/14 7/15/15
f 7/15/15 4/14/14 8/16/16
f 4/17/17 3/18/18 8/19/19
f 8/19/19 3/18/18 6/20/20
f 7/21/21 8/22/22 5/23/23
f 5/23/23 8/22/22 6/24/24
# 8 vertices
# 24 texture params
# 24 normals
# 12 facets

# 1 groups
