# WaveFront *.obj file (generated by Autodesk ATF)

mtllib Tshape.mtl

g Body1

v -7.500000 20.000000 -5.000000
v -7.500000 20.000000 5.000000
v -32.500000 20.000000 5.000000
v -32.500000 20.000000 -5.000000
v -32.500000 30.000000 5.000000
v -32.500000 30.000000 -5.000000
v -7.500000 -30.000000 5.000000
v 2.500000 -30.000000 5.000000
v 2.500000 20.000000 5.000000
v 27.500000 20.000000 5.000000
v 27.500000 30.000000 5.000000
v 2.500000 20.000000 -5.000000
v 2.500000 -30.000000 -5.000000
v -7.500000 -30.000000 -5.000000
v 27.500000 30.000000 -5.000000
v 27.500000 20.000000 -5.000000
vt 0.000000 3.500000 0.000000
vt 1.000000 3.500000 0.000000
vt 0.000000 6.000000 0.000000
vt 1.000000 6.000000 0.000000
vt 0.500000 0.500000 0.000000
vt -0.500000 0.500000 0.000000
vt 0.500000 -0.500000 0.000000
vt -0.500000 -0.500000 0.000000
vt 2.500000 -1.500000 0.000000
vt -2.500000 -0.500000 0.000000
vt -2.500000 -1.500000 0.000000
vt -3.500000 -4.000000 0.000000
vt -2.500000 -4.000000 0.000000
vt 2.500000 -0.500000 0.000000
vt -2.500000 2.000000 0.000000
vt -3.500000 2.000000 0.000000
vt 0.500000 -2.500000 0.000000
vt 1.500000 -2.500000 0.000000
vt 0.500000 2.500000 0.000000
vt 1.500000 2.500000 0.000000
vt -2.000000 3.500000 0.000000
vt 4.000000 3.500000 0.000000
vt 4.000000 2.500000 0.000000
vt -2.000000 2.500000 0.000000
vt -0.000000 0.000000 0.000000
vt 5.000000 0.000000 0.000000
vt -0.000000 1.000000 0.000000
vt 5.000000 1.000000 0.000000
vt 1.000000 1.000000 0.000000
vt 0.000000 1.000000 0.000000
vt 1.000000 0.000000 0.000000
vt 0.000000 0.000000 0.000000
vt 1.000000 2.000000 0.000000
vt -0.000000 2.000000 0.000000
vt 1.000000 -0.500000 0.000000
vt 0.000000 -0.500000 0.000000
vt 0.500000 0.500000 0.000000
vt -0.500000 0.500000 0.000000
vt 0.500000 -0.500000 0.000000
vt -0.500000 -0.500000 0.000000
vt 5.500000 1.000000 0.000000
vt -0.500000 1.000000 0.000000
vt 5.500000 0.000000 0.000000
vt -0.500000 0.000000 0.000000
vt 0.000000 0.000000 0.000000
vt 5.000000 0.000000 0.000000
vt 0.000000 1.000000 0.000000
vt 5.000000 1.000000 0.000000
vn 0.000000 -0.100000 -0.000000
vn 0.000000 -0.100000 -0.000000
vn 0.000000 -0.100000 -0.000000
vn 0.000000 -0.100000 -0.000000
vn -0.100000 -0.000000 0.000000
vn -0.100000 -0.000000 0.000000
vn -0.100000 -0.000000 0.000000
vn -0.100000 -0.000000 0.000000
vn -0.000000 0.000000 0.100000
vn -0.000000 0.000000 0.100000
vn -0.000000 0.000000 0.100000
vn -0.000000 0.000000 0.100000
vn -0.000000 0.000000 0.100000
vn -0.000000 0.000000 0.100000
vn -0.000000 0.000000 0.100000
vn -0.000000 0.000000 0.100000
vn 0.000000 -0.000000 -0.100000
vn 0.000000 -0.000000 -0.100000
vn 0.000000 -0.000000 -0.100000
vn 0.000000 -0.000000 -0.100000
vn 0.000000 -0.000000 -0.100000
vn 0.000000 -0.000000 -0.100000
vn 0.000000 -0.000000 -0.100000
vn 0.000000 -0.000000 -0.100000
vn 0.100000 -0.000000 0.000000
vn 0.100000 -0.000000 0.000000
vn 0.100000 -0.000000 0.000000
vn 0.100000 -0.000000 0.000000
vn 0.000000 -0.100000 0.000000
vn 0.000000 -0.100000 0.000000
vn 0.000000 -0.100000 0.000000
vn 0.000000 -0.100000 0.000000
vn 0.000000 -0.100000 0.000000
vn 0.000000 -0.100000 0.000000
vn 0.000000 -0.100000 0.000000
vn 0.000000 -0.100000 0.000000
vn 0.100000 -0.000000 0.000000
vn 0.100000 -0.000000 0.000000
vn 0.100000 -0.000000 0.000000
vn 0.100000 -0.000000 0.000000
vn 0.000000 0.100000 0.000000
vn 0.000000 0.100000 0.000000
vn 0.000000 0.100000 0.000000
vn 0.000000 0.100000 0.000000
vn -0.100000 -0.000000 0.000000
vn -0.100000 -0.000000 0.000000
vn -0.100000 -0.000000 0.000000
vn -0.100000 -0.000000 0.000000
usemtl Steel_-_Satin
f 1/1/1 2/2/2 4/3/3
f 4/3/3 2/2/2 3/4/4
f 3/5/5 5/6/6 4/7/7
f 4/7/7 5/6/6 6/8/8
f 7/9/9 9/10/10 2/11/11
f 2/11/11 9/10/10 5/12/12
f 2/11/11 5/12/12 3/13/13
f 7/9/9 8/14/14 9/10/10
f 10/15/15 11/16/16 9/10/10
f 9/10/10 11/16/16 5/12/12
f 13/17/17 14/18/18 12/19/19
f 12/19/19 14/18/18 1/20/20
f 12/19/19 1/20/20 15/21/21
f 15/21/21 1/20/20 6/22/22
f 6/22/22 1/20/20 4/23/23
f 15/21/21 16/24/24 12/19/19
f 13/25/25 12/26/26 8/27/27
f 8/27/27 12/26/26 9/28/28
f 8/29/29 7/30/30 13/31/31
f 13/31/31 7/30/30 14/32/32
f 16/33/33 10/34/34 12/35/35
f 12/35/35 10/34/34 9/36/36
f 11/37/37 10/38/38 15/39/39
f 15/39/39 10/38/38 16/40/40
f 5/41/41 11/42/42 6/43/43
f 6/43/43 11/42/42 15/44/44
f 1/45/45 14/46/46 2/47/47
f 2/47/47 14/46/46 7/48/48
# 16 vertices
# 48 texture params
# 48 normals
# 28 facets

# 1 groups
