# WaveFront *.obj file (generated by Autodesk ATF)

mtllib Vshape3d.mtl

g Body2

v -46.876615 5.000000 4.638932
v 7.500000 5.000000 30.000000
v 7.500000 15.000000 30.000000
v -46.876615 15.000000 4.638932
v -43.706481 5.000000 -2.158145
v -43.706481 15.000000 -2.158145
v 0.000000 5.000000 18.226409
v 0.000000 15.000000 18.226409
v 0.000000 5.000000 -30.000000
v 0.000000 15.000000 -30.000000
v 7.500000 5.000000 -30.000000
v 7.500000 15.000000 -30.000000
vt 0.000000 0.000000 0.000000
vt 6.000000 0.000000 0.000000
vt 0.000000 1.000000 0.000000
vt 6.000000 1.000000 0.000000
vt 0.000000 0.000000 0.000000
vt 0.750000 0.000000 0.000000
vt 0.000000 1.000000 0.000000
vt 0.750000 1.000000 0.000000
vt -0.000000 0.000000 0.000000
vt 4.822641 0.000000 0.000000
vt -0.000000 1.000000 0.000000
vt 4.822641 1.000000 0.000000
vt 0.000000 0.000000 0.000000
vt 4.822641 0.000000 0.000000
vt 0.000000 1.000000 0.000000
vt 4.822641 1.000000 0.000000
vt 0.000000 0.000000 0.000000
vt 0.750000 0.000000 0.000000
vt 0.000000 1.000000 0.000000
vt 0.750000 1.000000 0.000000
vt 0.000000 0.000000 0.000000
vt 6.000000 0.000000 0.000000
vt 0.000000 1.000000 0.000000
vt 6.000000 1.000000 0.000000
vt 0.463893 -2.718831 0.000000
vt 3.000000 2.718831 0.000000
vt 1.822641 1.968831 0.000000
vt -3.000000 2.718831 0.000000
vt -3.000000 1.968831 0.000000
vt -0.215814 -2.401817 0.000000
vt 1.968831 -3.000000 0.000000
vt 2.718831 -3.000000 0.000000
vt 1.968831 1.822641 0.000000
vt 2.718831 3.000000 0.000000
vt -2.718831 0.463893 0.000000
vt -2.401817 -0.215814 0.000000
vn -0.042268 0.000000 0.090628
vn -0.042268 0.000000 0.090628
vn -0.042268 0.000000 0.090628
vn -0.042268 0.000000 0.090628
vn -0.090628 0.000000 -0.042268
vn -0.090628 0.000000 -0.042268
vn -0.090628 0.000000 -0.042268
vn -0.090628 0.000000 -0.042268
vn 0.042268 0.000000 -0.090628
vn 0.042268 0.000000 -0.090628
vn 0.042268 0.000000 -0.090628
vn 0.042268 0.000000 -0.090628
vn -0.100000 0.000000 0.000000
vn -0.100000 0.000000 0.000000
vn -0.100000 0.000000 0.000000
vn -0.100000 0.000000 0.000000
vn 0.000000 0.000000 -0.100000
vn 0.000000 0.000000 -0.100000
vn 0.000000 0.000000 -0.100000
vn 0.000000 0.000000 -0.100000
vn 0.100000 -0.000000 0.000000
vn 0.100000 -0.000000 0.000000
vn 0.100000 -0.000000 0.000000
vn 0.100000 -0.000000 0.000000
vn 0.000000 0.100000 0.000000
vn 0.000000 0.100000 0.000000
vn 0.000000 0.100000 0.000000
vn 0.000000 0.100000 0.000000
vn 0.000000 0.100000 0.000000
vn 0.000000 0.100000 0.000000
vn 0.000000 -0.100000 0.000000
vn 0.000000 -0.100000 0.000000
vn 0.000000 -0.100000 0.000000
vn 0.000000 -0.100000 0.000000
vn 0.000000 -0.100000 0.000000
vn 0.000000 -0.100000 0.000000
usemtl Steel_-_Satin
f 1/1/1 2/2/2 4/3/3
f 4/3/3 2/2/2 3/4/4
f 5/5/5 1/6/6 6/7/7
f 6/7/7 1/6/6 4/8/8
f 7/9/9 5/10/10 8/11/11
f 8/11/11 5/10/10 6/12/12
f 9/13/13 7/14/14 10/15/15
f 10/15/15 7/14/14 8/16/16
f 11/17/17 9/18/18 12/19/19
f 12/19/19 9/18/18 10/20/20
f 2/21/21 11/22/22 3/23/23
f 3/23/23 11/22/22 12/24/24
f 4/25/25 3/26/26 8/27/27
f 8/27/27 3/26/26 12/28/28
f 8/27/27 12/28/28 10/29/29
f 8/27/27 6/30/30 4/25/25
f 9/31/31 11/32/32 7/33/33
f 7/33/33 11/32/32 2/34/34
f 7/33/33 2/34/34 1/35/35
f 1/35/35 5/36/36 7/33/33
# 12 vertices
# 36 texture params
# 36 normals
# 20 facets

# 1 groups
