# WaveFront *.obj file (generated by Autodesk ATF)

mtllib Body1.mtl

g Body1

v -5.000000 62.242961 87.242961
v -5.000000 -47.757038 87.242961
v 30.000000 -47.757038 87.242961
v 30.000000 62.242961 87.242961
v -5.000000 -47.757038 42.242961
v -5.000000 62.242961 42.242961
v 0.000000 62.242961 42.242961
v 27.500000 -47.757038 42.242961
v 30.000000 62.242961 62.242961
v 30.000000 -47.757038 42.242961
v 30.000000 -47.757038 60.576294
v 30.000000 62.242961 42.242961
vt -0.500000 1.000000 0.000000
vt 3.000000 1.000000 0.000000
vt -0.500000 12.000000 0.000000
vt 3.000000 12.000000 0.000000
vt -2.000000 -11.000000 0.000000
vt 2.500000 -11.000000 0.000000
vt -2.000000 0.000000 0.000000
vt 2.500000 0.000000 0.000000
vt 0.500000 12.000000 0.000000
vt 0.000000 12.000000 0.000000
vt 0.500000 1.000000 0.000000
vt -2.750000 1.000000 0.000000
vt -2.000000 -0.500000 0.000000
vt 2.500000 -0.500000 0.000000
vt -2.000000 0.000000 0.000000
vt 0.000000 3.000000 0.000000
vt 2.500000 3.000000 0.000000
vt -2.500000 0.000000 0.000000
vt -2.500000 -3.500000 0.000000
vt 0.166667 0.000000 0.000000
vt 2.000000 -3.500000 0.000000
vt 2.000000 -0.250000 0.000000
vt 2.000000 0.000000 0.000000
vt -2.000000 0.000000 0.000000
vt -2.000000 -3.000000 0.000000
vt 0.000000 0.000000 0.000000
vt -2.500000 0.000000 0.000000
vt -2.500000 -11.000000 0.000000
vt 0.000000 0.000000 0.000000
vt 0.166667 -11.000000 0.000000
vt 2.000000 0.000000 0.000000
vt 0.166667 1.000000 0.000000
vt 2.000000 1.000000 0.000000
vt 2.000000 12.000000 0.000000
vt -3.000000 -11.000000 0.000000
vt -2.750000 -11.000000 0.000000
vt -3.000000 0.000000 0.000000
vt 0.000000 0.000000 0.000000
vn 0.000000 0.000000 0.100000
vn 0.000000 0.000000 0.100000
vn 0.000000 0.000000 0.100000
vn 0.000000 0.000000 0.100000
vn -0.100000 0.000000 0.000000
vn -0.100000 0.000000 0.000000
vn -0.100000 0.000000 0.000000
vn -0.100000 0.000000 0.000000
vn 0.000000 0.000000 -0.100000
vn 0.000000 0.000000 -0.100000
vn 0.000000 0.000000 -0.100000
vn 0.000000 0.000000 -0.100000
vn 0.000000 0.100000 0.000000
vn 0.000000 0.100000 0.000000
vn 0.000000 0.100000 0.000000
vn 0.000000 0.100000 0.000000
vn 0.000000 0.100000 0.000000
vn 0.000000 -0.100000 0.000000
vn 0.000000 -0.100000 0.000000
vn 0.000000 -0.100000 0.000000
vn 0.000000 -0.100000 0.000000
vn 0.000000 -0.100000 0.000000
vn 0.000000 -0.100000 0.000000
vn 0.000000 0.100000 0.000000
vn 0.100000 0.000000 0.000000
vn 0.100000 0.000000 0.000000
vn 0.100000 0.000000 0.000000
vn 0.100000 0.000000 0.000000
vn 0.100000 0.000000 0.000000
vn 0.100000 0.000000 0.000000
vn 0.000000 0.000000 -0.100000
vn 0.000000 0.000000 -0.100000
usemtl Steel_-_Satin
f 2/1/1 3/2/2 1/3/3
f 1/3/3 3/2/2 4/4/4
f 5/5/5 2/6/6 6/7/7
f 6/7/7 2/6/6 1/8/8
f 6/9/9 7/10/10 5/11/11
f 5/11/11 7/10/10 8/12/12
f 6/13/13 1/14/14 7/15/15
f 7/15/15 1/14/14 9/16/16
f 9/16/16 1/14/14 4/17/17
f 3/18/18 2/19/19 11/20/20
f 11/20/20 2/19/19 5/21/21
f 11/20/20 5/21/21 8/22/22
f 8/22/22 10/23/23 11/20/20
f 12/24/24 7/25/15 9/26/16
f 4/27/25 3/28/26 9/29/27
f 9/29/27 3/28/26 11/30/28
f 9/29/27 11/30/28 12/31/29
f 11/32/28 10/33/30 12/34/29
f 10/35/31 8/36/12 12/37/32
f 12/37/32 8/36/12 7/38/10
# 12 vertices
# 38 texture params
# 32 normals
# 20 facets

# 1 groups
