# WaveFront *.obj file (generated by Autodesk ATF)

mtllib tshapev2.mtl

g Body1

v 57.500000 0.000000 -66.000000
v 57.500000 20.000000 -66.000000
v 12.500000 20.000000 -66.000000
v 12.500000 0.000000 -66.000000
v 12.500000 20.000000 27.000000
v 12.500000 0.000000 27.000000
v -52.500000 20.000000 -66.000000
v -52.500000 0.000000 -66.000000
v -7.500000 0.000000 -66.000000
v -7.500000 20.000000 -66.000000
v 57.500000 20.000000 -88.000000
v -52.500000 20.000000 -88.000000
v -7.500000 20.000000 27.000000
v 57.500000 0.000000 -88.000000
v -7.500000 0.000000 27.000000
v -52.500000 0.000000 -88.000000
vt 3.500000 0.000000 0.000000
vt -1.000000 0.000000 0.000000
vt 3.500000 -2.000000 0.000000
vt -1.000000 -2.000000 0.000000
vt 9.800000 2.000000 0.000000
vt 0.500000 2.000000 0.000000
vt 9.800000 0.000000 0.000000
vt 0.500000 0.000000 0.000000
vt -11.500000 0.000000 0.000000
vt -7.000000 0.000000 0.000000
vt -11.500000 2.000000 0.000000
vt -7.000000 2.000000 0.000000
vt -4.800000 3.500000 0.000000
vt -7.000000 3.500000 0.000000
vt -4.800000 -1.000000 0.000000
vt -7.000000 -7.500000 0.000000
vt -4.800000 -3.000000 0.000000
vt -4.800000 -7.500000 0.000000
vt 4.500000 -3.000000 0.000000
vt 4.500000 -1.000000 0.000000
vt -1.200000 -1.000000 0.000000
vt 1.000000 -1.000000 0.000000
vt -1.200000 1.000000 0.000000
vt 1.000000 1.000000 0.000000
vt -0.000000 0.000000 0.000000
vt 2.000000 0.000000 0.000000
vt -0.000000 2.000000 0.000000
vt 2.000000 2.000000 0.000000
vt 0.200000 0.000000 0.000000
vt 9.500000 0.000000 0.000000
vt 0.200000 2.000000 0.000000
vt 9.500000 2.000000 0.000000
vt -1.000000 -1.000000 0.000000
vt 1.200000 -1.000000 0.000000
vt -1.000000 1.000000 0.000000
vt 1.200000 1.000000 0.000000
vt -0.500000 0.000000 0.000000
vt 10.500000 0.000000 0.000000
vt -0.500000 2.000000 0.000000
vt 10.500000 2.000000 0.000000
vt -3.500000 4.800000 0.000000
vt 1.000000 4.800000 0.000000
vt -3.500000 7.000000 0.000000
vt 3.000000 4.800000 0.000000
vt 7.500000 7.000000 0.000000
vt 7.500000 4.800000 0.000000
vt 1.000000 -4.500000 0.000000
vt 3.000000 -4.500000 0.000000
vn 0.000000 0.000000 0.100000
vn 0.000000 0.000000 0.100000
vn 0.000000 0.000000 0.100000
vn 0.000000 0.000000 0.100000
vn 0.100000 0.000000 0.000000
vn 0.100000 0.000000 0.000000
vn 0.100000 0.000000 0.000000
vn 0.100000 0.000000 0.000000
vn 0.000000 0.000000 0.100000
vn 0.000000 0.000000 0.100000
vn 0.000000 0.000000 0.100000
vn 0.000000 0.000000 0.100000
vn 0.000000 0.100000 0.000000
vn 0.000000 0.100000 0.000000
vn 0.000000 0.100000 0.000000
vn 0.000000 0.100000 0.000000
vn 0.000000 0.100000 0.000000
vn 0.000000 0.100000 0.000000
vn 0.000000 0.100000 0.000000
vn 0.000000 0.100000 0.000000
vn 0.100000 0.000000 0.000000
vn 0.100000 0.000000 0.000000
vn 0.100000 0.000000 0.000000
vn 0.100000 0.000000 0.000000
vn 0.000000 0.000000 0.100000
vn 0.000000 0.000000 0.100000
vn 0.000000 0.000000 0.100000
vn 0.000000 0.000000 0.100000
vn -0.100000 0.000000 0.000000
vn -0.100000 0.000000 0.000000
vn -0.100000 0.000000 0.000000
vn -0.100000 0.000000 0.000000
vn -0.100000 0.000000 0.000000
vn -0.100000 0.000000 0.000000
vn -0.100000 0.000000 0.000000
vn -0.100000 0.000000 0.000000
vn 0.000000 0.000000 -0.100000
vn 0.000000 0.000000 -0.100000
vn 0.000000 0.000000 -0.100000
vn 0.000000 0.000000 -0.100000
vn 0.000000 -0.100000 0.000000
vn 0.000000 -0.100000 0.000000
vn 0.000000 -0.100000 0.000000
vn 0.000000 -0.100000 0.000000
vn 0.000000 -0.100000 0.000000
vn 0.000000 -0.100000 0.000000
vn 0.000000 -0.100000 0.000000
vn 0.000000 -0.100000 0.000000
usemtl Steel_-_Satin
f 2/1/1 3/2/2 1/3/3
f 1/3/3 3/2/2 4/4/4
f 3/5/5 5/6/6 4/7/7
f 4/7/7 5/6/6 6/8/8
f 8/9/9 9/10/10 7/11/11
f 7/11/11 9/10/10 10/12/12
f 2/13/13 11/14/14 3/15/15
f 3/15/15 11/14/14 12/16/16
f 3/15/15 12/16/16 10/17/17
f 10/17/17 12/16/16 7/18/18
f 10/17/17 13/19/19 3/15/15
f 3/15/15 13/19/19 5/20/20
f 1/21/21 14/22/22 2/23/23
f 2/23/23 14/22/22 11/24/24
f 15/25/25 6/26/26 13/27/27
f 13/27/27 6/26/26 5/28/28
f 9/29/29 15/30/30 10/31/31
f 10/31/31 15/30/30 13/32/32
f 16/33/33 8/34/34 12/35/35
f 12/35/35 8/34/34 7/36/36
f 14/37/37 16/38/38 11/39/39
f 11/39/39 16/38/38 12/40/40
f 1/41/41 4/42/42 14/43/43
f 14/43/43 4/42/42 9/44/44
f 14/43/43 9/44/44 16/45/45
f 16/45/45 9/44/44 8/46/46
f 6/47/47 15/48/48 4/42/42
f 4/42/42 15/48/48 9/44/44
# 16 vertices
# 48 texture params
# 48 normals
# 28 facets

# 1 groups
