# WaveFront *.obj file (generated by Autodesk ATF)

mtllib Body2.mtl

g Body2

v -425.888627 328.114008 80.000000
v -425.888627 328.114008 125.000000
v -435.610366 348.958378 125.000000
v -435.610366 348.958378 80.000000
v -354.651855 361.338597 125.000000
v -354.651855 282.734840 125.000000
v -331.651855 282.734840 125.000000
v -331.651855 397.444277 125.000000
v -354.651855 361.338597 80.000000
v -354.651855 282.734840 80.000000
v -331.651855 282.734840 80.000000
v -331.651855 397.444277 80.000000
vt 0.000000 -2.000000 0.000000
vt 4.500000 -2.000000 0.000000
vt 0.000000 0.300000 0.000000
vt 4.500000 0.300000 0.000000
vt -4.139154 -0.962083 0.000000
vt 2.984523 2.360376 0.000000
vt -5.111328 1.122354 0.000000
vt 5.284523 5.970944 0.000000
vt 5.284523 -5.500000 0.000000
vt 2.984523 -5.500000 0.000000
vt -4.500000 -8.645282 0.000000
vt -0.000000 -8.645282 0.000000
vt -4.500000 -0.784906 0.000000
vt -0.000000 -0.784906 0.000000
vt 4.500000 8.860376 0.000000
vt -0.000000 8.860376 0.000000
vt 4.500000 1.000000 0.000000
vt 0.000000 1.000000 0.000000
vt -4.500000 -11.000000 0.000000
vt -0.000000 -11.000000 0.000000
vt -4.500000 0.470944 0.000000
vt -0.000000 0.470944 0.000000
vt 0.000000 -11.000000 0.000000
vt 4.500000 -11.000000 0.000000
vt 0.000000 0.470944 0.000000
vt 4.500000 0.470944 0.000000
vt 5.537917 -7.623677 0.000000
vt 7.622354 -8.595851 0.000000
vt 8.860376 -0.500000 0.000000
vt 12.470944 1.800000 0.000000
vt 1.000000 1.800000 0.000000
vt 1.000000 -0.500000 0.000000
vt -0.000000 0.300000 0.000000
vt -4.500000 0.300000 0.000000
vt -0.000000 -2.000000 0.000000
vt -4.500000 -2.000000 0.000000
vn -0.090628 -0.042268 0.000000
vn -0.090628 -0.042268 0.000000
vn -0.090628 -0.042268 0.000000
vn -0.090628 -0.042268 0.000000
vn 0.000000 0.000000 0.100000
vn 0.000000 0.000000 0.100000
vn 0.000000 0.000000 0.100000
vn 0.000000 0.000000 0.100000
vn 0.000000 0.000000 0.100000
vn 0.000000 0.000000 0.100000
vn 0.042268 -0.090628 0.000000
vn 0.042268 -0.090628 0.000000
vn 0.042268 -0.090628 0.000000
vn 0.042268 -0.090628 0.000000
vn -0.100000 0.000000 0.000000
vn -0.100000 0.000000 0.000000
vn -0.100000 0.000000 0.000000
vn -0.100000 0.000000 0.000000
vn 0.100000 0.000000 0.000000
vn 0.100000 0.000000 0.000000
vn 0.100000 0.000000 0.000000
vn 0.100000 0.000000 0.000000
vn -0.042268 0.090628 0.000000
vn -0.042268 0.090628 0.000000
vn -0.042268 0.090628 0.000000
vn -0.042268 0.090628 0.000000
vn 0.000000 -0.000000 -0.100000
vn 0.000000 -0.000000 -0.100000
vn 0.000000 -0.000000 -0.100000
vn 0.000000 -0.000000 -0.100000
vn 0.000000 -0.000000 -0.100000
vn 0.000000 -0.000000 -0.100000
vn 0.000000 -0.100000 0.000000
vn 0.000000 -0.100000 0.000000
vn 0.000000 -0.100000 0.000000
vn 0.000000 -0.100000 0.000000
usemtl Steel_-_Satin
f 1/1/1 2/2/2 4/3/3
f 4/3/3 2/2/2 3/4/4
f 2/5/5 5/6/6 3/7/7
f 3/7/7 5/6/6 8/8/8
f 8/8/8 5/6/6 7/9/9
f 7/9/9 5/6/6 6/10/10
f 2/11/11 1/12/12 5/13/13
f 5/13/13 1/12/12 9/14/14
f 5/15/15 9/16/16 6/17/17
f 6/17/17 9/16/16 10/18/18
f 7/19/19 11/20/20 8/21/21
f 8/21/21 11/20/20 12/22/22
f 4/23/23 3/24/24 12/25/25
f 12/25/25 3/24/24 8/26/26
f 1/27/27 4/28/28 9/29/29
f 9/29/29 4/28/28 12/30/30
f 9/29/29 12/30/30 11/31/31
f 11/31/31 10/32/32 9/29/29
f 11/33/33 7/34/34 10/35/35
f 10/35/35 7/34/34 6/36/36
# 12 vertices
# 36 texture params
# 36 normals
# 20 facets

# 1 groups
